<?xml version="1.0" encoding="utf-8" standalone="no"?>
<!DOCTYPE svg PUBLIC "-//W3C//DTD SVG 1.1//EN"
  "http://www.w3.org/Graphics/SVG/1.1/DTD/svg11.dtd">
<svg xmlns:xlink="http://www.w3.org/1999/xlink" width="460.8pt" height="345.6pt" viewBox="0 0 460.8 345.6" xmlns="http://www.w3.org/2000/svg" version="1.1">
 <metadata>
  <rdf:RDF xmlns:dc="http://purl.org/dc/elements/1.1/" xmlns:cc="http://creativecommons.org/ns#" xmlns:rdf="http://www.w3.org/1999/02/22-rdf-syntax-ns#">
   <cc:Work>
    <dc:type rdf:resource="http://purl.org/dc/dcmitype/StillImage"/>
    <dc:date>2026-04-05T17:55:42.662360</dc:date>
    <dc:format>image/svg+xml</dc:format>
    <dc:creator>
     <cc:Agent>
      <dc:title>Matplotlib v3.9.4, https://matplotlib.org/</dc:title>
     </cc:Agent>
    </dc:creator>
   </cc:Work>
  </rdf:RDF>
 </metadata>
 <defs>
  <style type="text/css">*{stroke-linejoin: round; stroke-linecap: butt}</style>
 </defs>
 <g id="figure_1">
  <g id="patch_1">
   <path d="M 0 345.6 
L 460.8 345.6 
L 460.8 0 
L 0 0 
z
" style="fill: #ffffff"/>
  </g>
  <g id="axes_1">
   <g id="patch_2">
    <path d="M 57.6 307.584 
L 414.72 307.584 
L 414.72 41.472 
L 57.6 41.472 
z
" style="fill: #ffffff"/>
   </g>
   <g id="matplotlib.axis_1">
    <g id="xtick_1">
     <g id="line2d_1">
      <defs>
       <path id="m7dd1640cd1" d="M 0 0 
L 0 3.5 
" style="stroke: #000000; stroke-width: 0.8"/>
      </defs>
      <g>
       <use xlink:href="#m7dd1640cd1" x="73.832727" y="307.584" style="stroke: #000000; stroke-width: 0.8"/>
      </g>
     </g>
     <g id="text_1">
      <!-- 0 -->
      <g transform="translate(70.651477 322.182437) scale(0.1 -0.1)">
       <defs>
        <path id="DejaVuSans-30" d="M 2034 4250 
Q 1547 4250 1301 3770 
Q 1056 3291 1056 2328 
Q 1056 1369 1301 889 
Q 1547 409 2034 409 
Q 2525 409 2770 889 
Q 3016 1369 3016 2328 
Q 3016 3291 2770 3770 
Q 2525 4250 2034 4250 
z
M 2034 4750 
Q 2819 4750 3233 4129 
Q 3647 3509 3647 2328 
Q 3647 1150 3233 529 
Q 2819 -91 2034 -91 
Q 1250 -91 836 529 
Q 422 1150 422 2328 
Q 422 3509 836 4129 
Q 1250 4750 2034 4750 
z
" transform="scale(0.015625)"/>
       </defs>
       <use xlink:href="#DejaVuSans-30"/>
      </g>
     </g>
    </g>
    <g id="xtick_2">
     <g id="line2d_2">
      <g>
       <use xlink:href="#m7dd1640cd1" x="146.138862" y="307.584" style="stroke: #000000; stroke-width: 0.8"/>
      </g>
     </g>
     <g id="text_2">
      <!-- 100 -->
      <g transform="translate(136.595112 322.182437) scale(0.1 -0.1)">
       <defs>
        <path id="DejaVuSans-31" d="M 794 531 
L 1825 531 
L 1825 4091 
L 703 3866 
L 703 4441 
L 1819 4666 
L 2450 4666 
L 2450 531 
L 3481 531 
L 3481 0 
L 794 0 
L 794 531 
z
" transform="scale(0.015625)"/>
       </defs>
       <use xlink:href="#DejaVuSans-31"/>
       <use xlink:href="#DejaVuSans-30" x="63.623047"/>
       <use xlink:href="#DejaVuSans-30" x="127.246094"/>
      </g>
     </g>
    </g>
    <g id="xtick_3">
     <g id="line2d_3">
      <g>
       <use xlink:href="#m7dd1640cd1" x="218.444997" y="307.584" style="stroke: #000000; stroke-width: 0.8"/>
      </g>
     </g>
     <g id="text_3">
      <!-- 200 -->
      <g transform="translate(208.901247 322.182437) scale(0.1 -0.1)">
       <defs>
        <path id="DejaVuSans-32" d="M 1228 531 
L 3431 531 
L 3431 0 
L 469 0 
L 469 531 
Q 828 903 1448 1529 
Q 2069 2156 2228 2338 
Q 2531 2678 2651 2914 
Q 2772 3150 2772 3378 
Q 2772 3750 2511 3984 
Q 2250 4219 1831 4219 
Q 1534 4219 1204 4116 
Q 875 4013 500 3803 
L 500 4441 
Q 881 4594 1212 4672 
Q 1544 4750 1819 4750 
Q 2544 4750 2975 4387 
Q 3406 4025 3406 3419 
Q 3406 3131 3298 2873 
Q 3191 2616 2906 2266 
Q 2828 2175 2409 1742 
Q 1991 1309 1228 531 
z
" transform="scale(0.015625)"/>
       </defs>
       <use xlink:href="#DejaVuSans-32"/>
       <use xlink:href="#DejaVuSans-30" x="63.623047"/>
       <use xlink:href="#DejaVuSans-30" x="127.246094"/>
      </g>
     </g>
    </g>
    <g id="xtick_4">
     <g id="line2d_4">
      <g>
       <use xlink:href="#m7dd1640cd1" x="290.751132" y="307.584" style="stroke: #000000; stroke-width: 0.8"/>
      </g>
     </g>
     <g id="text_4">
      <!-- 300 -->
      <g transform="translate(281.207382 322.182437) scale(0.1 -0.1)">
       <defs>
        <path id="DejaVuSans-33" d="M 2597 2516 
Q 3050 2419 3304 2112 
Q 3559 1806 3559 1356 
Q 3559 666 3084 287 
Q 2609 -91 1734 -91 
Q 1441 -91 1130 -33 
Q 819 25 488 141 
L 488 750 
Q 750 597 1062 519 
Q 1375 441 1716 441 
Q 2309 441 2620 675 
Q 2931 909 2931 1356 
Q 2931 1769 2642 2001 
Q 2353 2234 1838 2234 
L 1294 2234 
L 1294 2753 
L 1863 2753 
Q 2328 2753 2575 2939 
Q 2822 3125 2822 3475 
Q 2822 3834 2567 4026 
Q 2313 4219 1838 4219 
Q 1578 4219 1281 4162 
Q 984 4106 628 3988 
L 628 4550 
Q 988 4650 1302 4700 
Q 1616 4750 1894 4750 
Q 2613 4750 3031 4423 
Q 3450 4097 3450 3541 
Q 3450 3153 3228 2886 
Q 3006 2619 2597 2516 
z
" transform="scale(0.015625)"/>
       </defs>
       <use xlink:href="#DejaVuSans-33"/>
       <use xlink:href="#DejaVuSans-30" x="63.623047"/>
       <use xlink:href="#DejaVuSans-30" x="127.246094"/>
      </g>
     </g>
    </g>
    <g id="xtick_5">
     <g id="line2d_5">
      <g>
       <use xlink:href="#m7dd1640cd1" x="363.057267" y="307.584" style="stroke: #000000; stroke-width: 0.8"/>
      </g>
     </g>
     <g id="text_5">
      <!-- 400 -->
      <g transform="translate(353.513517 322.182437) scale(0.1 -0.1)">
       <defs>
        <path id="DejaVuSans-34" d="M 2419 4116 
L 825 1625 
L 2419 1625 
L 2419 4116 
z
M 2253 4666 
L 3047 4666 
L 3047 1625 
L 3713 1625 
L 3713 1100 
L 3047 1100 
L 3047 0 
L 2419 0 
L 2419 1100 
L 313 1100 
L 313 1709 
L 2253 4666 
z
" transform="scale(0.015625)"/>
       </defs>
       <use xlink:href="#DejaVuSans-34"/>
       <use xlink:href="#DejaVuSans-30" x="63.623047"/>
       <use xlink:href="#DejaVuSans-30" x="127.246094"/>
      </g>
     </g>
    </g>
    <g id="text_6">
     <!-- Epochs -->
     <g transform="translate(218.244375 335.860562) scale(0.1 -0.1)">
      <defs>
       <path id="DejaVuSans-45" d="M 628 4666 
L 3578 4666 
L 3578 4134 
L 1259 4134 
L 1259 2753 
L 3481 2753 
L 3481 2222 
L 1259 2222 
L 1259 531 
L 3634 531 
L 3634 0 
L 628 0 
L 628 4666 
z
" transform="scale(0.015625)"/>
       <path id="DejaVuSans-70" d="M 1159 525 
L 1159 -1331 
L 581 -1331 
L 581 3500 
L 1159 3500 
L 1159 2969 
Q 1341 3281 1617 3432 
Q 1894 3584 2278 3584 
Q 2916 3584 3314 3078 
Q 3713 2572 3713 1747 
Q 3713 922 3314 415 
Q 2916 -91 2278 -91 
Q 1894 -91 1617 61 
Q 1341 213 1159 525 
z
M 3116 1747 
Q 3116 2381 2855 2742 
Q 2594 3103 2138 3103 
Q 1681 3103 1420 2742 
Q 1159 2381 1159 1747 
Q 1159 1113 1420 752 
Q 1681 391 2138 391 
Q 2594 391 2855 752 
Q 3116 1113 3116 1747 
z
" transform="scale(0.015625)"/>
       <path id="DejaVuSans-6f" d="M 1959 3097 
Q 1497 3097 1228 2736 
Q 959 2375 959 1747 
Q 959 1119 1226 758 
Q 1494 397 1959 397 
Q 2419 397 2687 759 
Q 2956 1122 2956 1747 
Q 2956 2369 2687 2733 
Q 2419 3097 1959 3097 
z
M 1959 3584 
Q 2709 3584 3137 3096 
Q 3566 2609 3566 1747 
Q 3566 888 3137 398 
Q 2709 -91 1959 -91 
Q 1206 -91 779 398 
Q 353 888 353 1747 
Q 353 2609 779 3096 
Q 1206 3584 1959 3584 
z
" transform="scale(0.015625)"/>
       <path id="DejaVuSans-63" d="M 3122 3366 
L 3122 2828 
Q 2878 2963 2633 3030 
Q 2388 3097 2138 3097 
Q 1578 3097 1268 2742 
Q 959 2388 959 1747 
Q 959 1106 1268 751 
Q 1578 397 2138 397 
Q 2388 397 2633 464 
Q 2878 531 3122 666 
L 3122 134 
Q 2881 22 2623 -34 
Q 2366 -91 2075 -91 
Q 1284 -91 818 406 
Q 353 903 353 1747 
Q 353 2603 823 3093 
Q 1294 3584 2113 3584 
Q 2378 3584 2631 3529 
Q 2884 3475 3122 3366 
z
" transform="scale(0.015625)"/>
       <path id="DejaVuSans-68" d="M 3513 2113 
L 3513 0 
L 2938 0 
L 2938 2094 
Q 2938 2591 2744 2837 
Q 2550 3084 2163 3084 
Q 1697 3084 1428 2787 
Q 1159 2491 1159 1978 
L 1159 0 
L 581 0 
L 581 4863 
L 1159 4863 
L 1159 2956 
Q 1366 3272 1645 3428 
Q 1925 3584 2291 3584 
Q 2894 3584 3203 3211 
Q 3513 2838 3513 2113 
z
" transform="scale(0.015625)"/>
       <path id="DejaVuSans-73" d="M 2834 3397 
L 2834 2853 
Q 2591 2978 2328 3040 
Q 2066 3103 1784 3103 
Q 1356 3103 1142 2972 
Q 928 2841 928 2578 
Q 928 2378 1081 2264 
Q 1234 2150 1697 2047 
L 1894 2003 
Q 2506 1872 2764 1633 
Q 3022 1394 3022 966 
Q 3022 478 2636 193 
Q 2250 -91 1575 -91 
Q 1294 -91 989 -36 
Q 684 19 347 128 
L 347 722 
Q 666 556 975 473 
Q 1284 391 1588 391 
Q 1994 391 2212 530 
Q 2431 669 2431 922 
Q 2431 1156 2273 1281 
Q 2116 1406 1581 1522 
L 1381 1569 
Q 847 1681 609 1914 
Q 372 2147 372 2553 
Q 372 3047 722 3315 
Q 1072 3584 1716 3584 
Q 2034 3584 2315 3537 
Q 2597 3491 2834 3397 
z
" transform="scale(0.015625)"/>
      </defs>
      <use xlink:href="#DejaVuSans-45"/>
      <use xlink:href="#DejaVuSans-70" x="63.183594"/>
      <use xlink:href="#DejaVuSans-6f" x="126.660156"/>
      <use xlink:href="#DejaVuSans-63" x="187.841797"/>
      <use xlink:href="#DejaVuSans-68" x="242.822266"/>
      <use xlink:href="#DejaVuSans-73" x="306.201172"/>
     </g>
    </g>
   </g>
   <g id="matplotlib.axis_2">
    <g id="ytick_1">
     <g id="line2d_6">
      <defs>
       <path id="mcc4a31f610" d="M 0 0 
L -3.5 0 
" style="stroke: #000000; stroke-width: 0.8"/>
      </defs>
      <g>
       <use xlink:href="#mcc4a31f610" x="57.6" y="279.616093" style="stroke: #000000; stroke-width: 0.8"/>
      </g>
     </g>
     <g id="text_7">
      <!-- 0.05 -->
      <g transform="translate(28.334375 283.415311) scale(0.1 -0.1)">
       <defs>
        <path id="DejaVuSans-2e" d="M 684 794 
L 1344 794 
L 1344 0 
L 684 0 
L 684 794 
z
" transform="scale(0.015625)"/>
        <path id="DejaVuSans-35" d="M 691 4666 
L 3169 4666 
L 3169 4134 
L 1269 4134 
L 1269 2991 
Q 1406 3038 1543 3061 
Q 1681 3084 1819 3084 
Q 2600 3084 3056 2656 
Q 3513 2228 3513 1497 
Q 3513 744 3044 326 
Q 2575 -91 1722 -91 
Q 1428 -91 1123 -41 
Q 819 9 494 109 
L 494 744 
Q 775 591 1075 516 
Q 1375 441 1709 441 
Q 2250 441 2565 725 
Q 2881 1009 2881 1497 
Q 2881 1984 2565 2268 
Q 2250 2553 1709 2553 
Q 1456 2553 1204 2497 
Q 953 2441 691 2322 
L 691 4666 
z
" transform="scale(0.015625)"/>
       </defs>
       <use xlink:href="#DejaVuSans-30"/>
       <use xlink:href="#DejaVuSans-2e" x="63.623047"/>
       <use xlink:href="#DejaVuSans-30" x="95.410156"/>
       <use xlink:href="#DejaVuSans-35" x="159.033203"/>
      </g>
     </g>
    </g>
    <g id="ytick_2">
     <g id="line2d_7">
      <g>
       <use xlink:href="#mcc4a31f610" x="57.6" y="247.11345" style="stroke: #000000; stroke-width: 0.8"/>
      </g>
     </g>
     <g id="text_8">
      <!-- 0.10 -->
      <g transform="translate(28.334375 250.912669) scale(0.1 -0.1)">
       <use xlink:href="#DejaVuSans-30"/>
       <use xlink:href="#DejaVuSans-2e" x="63.623047"/>
       <use xlink:href="#DejaVuSans-31" x="95.410156"/>
       <use xlink:href="#DejaVuSans-30" x="159.033203"/>
      </g>
     </g>
    </g>
    <g id="ytick_3">
     <g id="line2d_8">
      <g>
       <use xlink:href="#mcc4a31f610" x="57.6" y="214.610808" style="stroke: #000000; stroke-width: 0.8"/>
      </g>
     </g>
     <g id="text_9">
      <!-- 0.15 -->
      <g transform="translate(28.334375 218.410027) scale(0.1 -0.1)">
       <use xlink:href="#DejaVuSans-30"/>
       <use xlink:href="#DejaVuSans-2e" x="63.623047"/>
       <use xlink:href="#DejaVuSans-31" x="95.410156"/>
       <use xlink:href="#DejaVuSans-35" x="159.033203"/>
      </g>
     </g>
    </g>
    <g id="ytick_4">
     <g id="line2d_9">
      <g>
       <use xlink:href="#mcc4a31f610" x="57.6" y="182.108166" style="stroke: #000000; stroke-width: 0.8"/>
      </g>
     </g>
     <g id="text_10">
      <!-- 0.20 -->
      <g transform="translate(28.334375 185.907385) scale(0.1 -0.1)">
       <use xlink:href="#DejaVuSans-30"/>
       <use xlink:href="#DejaVuSans-2e" x="63.623047"/>
       <use xlink:href="#DejaVuSans-32" x="95.410156"/>
       <use xlink:href="#DejaVuSans-30" x="159.033203"/>
      </g>
     </g>
    </g>
    <g id="ytick_5">
     <g id="line2d_10">
      <g>
       <use xlink:href="#mcc4a31f610" x="57.6" y="149.605524" style="stroke: #000000; stroke-width: 0.8"/>
      </g>
     </g>
     <g id="text_11">
      <!-- 0.25 -->
      <g transform="translate(28.334375 153.404742) scale(0.1 -0.1)">
       <use xlink:href="#DejaVuSans-30"/>
       <use xlink:href="#DejaVuSans-2e" x="63.623047"/>
       <use xlink:href="#DejaVuSans-32" x="95.410156"/>
       <use xlink:href="#DejaVuSans-35" x="159.033203"/>
      </g>
     </g>
    </g>
    <g id="ytick_6">
     <g id="line2d_11">
      <g>
       <use xlink:href="#mcc4a31f610" x="57.6" y="117.102881" style="stroke: #000000; stroke-width: 0.8"/>
      </g>
     </g>
     <g id="text_12">
      <!-- 0.30 -->
      <g transform="translate(28.334375 120.9021) scale(0.1 -0.1)">
       <use xlink:href="#DejaVuSans-30"/>
       <use xlink:href="#DejaVuSans-2e" x="63.623047"/>
       <use xlink:href="#DejaVuSans-33" x="95.410156"/>
       <use xlink:href="#DejaVuSans-30" x="159.033203"/>
      </g>
     </g>
    </g>
    <g id="ytick_7">
     <g id="line2d_12">
      <g>
       <use xlink:href="#mcc4a31f610" x="57.6" y="84.600239" style="stroke: #000000; stroke-width: 0.8"/>
      </g>
     </g>
     <g id="text_13">
      <!-- 0.35 -->
      <g transform="translate(28.334375 88.399458) scale(0.1 -0.1)">
       <use xlink:href="#DejaVuSans-30"/>
       <use xlink:href="#DejaVuSans-2e" x="63.623047"/>
       <use xlink:href="#DejaVuSans-33" x="95.410156"/>
       <use xlink:href="#DejaVuSans-35" x="159.033203"/>
      </g>
     </g>
    </g>
    <g id="ytick_8">
     <g id="line2d_13">
      <g>
       <use xlink:href="#mcc4a31f610" x="57.6" y="52.097597" style="stroke: #000000; stroke-width: 0.8"/>
      </g>
     </g>
     <g id="text_14">
      <!-- 0.40 -->
      <g transform="translate(28.334375 55.896816) scale(0.1 -0.1)">
       <use xlink:href="#DejaVuSans-30"/>
       <use xlink:href="#DejaVuSans-2e" x="63.623047"/>
       <use xlink:href="#DejaVuSans-34" x="95.410156"/>
       <use xlink:href="#DejaVuSans-30" x="159.033203"/>
      </g>
     </g>
    </g>
    <g id="text_15">
     <!-- nDCG -->
     <g transform="translate(22.254688 188.912375) rotate(-90) scale(0.1 -0.1)">
      <defs>
       <path id="DejaVuSans-6e" d="M 3513 2113 
L 3513 0 
L 2938 0 
L 2938 2094 
Q 2938 2591 2744 2837 
Q 2550 3084 2163 3084 
Q 1697 3084 1428 2787 
Q 1159 2491 1159 1978 
L 1159 0 
L 581 0 
L 581 3500 
L 1159 3500 
L 1159 2956 
Q 1366 3272 1645 3428 
Q 1925 3584 2291 3584 
Q 2894 3584 3203 3211 
Q 3513 2838 3513 2113 
z
" transform="scale(0.015625)"/>
       <path id="DejaVuSans-44" d="M 1259 4147 
L 1259 519 
L 2022 519 
Q 2988 519 3436 956 
Q 3884 1394 3884 2338 
Q 3884 3275 3436 3711 
Q 2988 4147 2022 4147 
L 1259 4147 
z
M 628 4666 
L 1925 4666 
Q 3281 4666 3915 4102 
Q 4550 3538 4550 2338 
Q 4550 1131 3912 565 
Q 3275 0 1925 0 
L 628 0 
L 628 4666 
z
" transform="scale(0.015625)"/>
       <path id="DejaVuSans-43" d="M 4122 4306 
L 4122 3641 
Q 3803 3938 3442 4084 
Q 3081 4231 2675 4231 
Q 1875 4231 1450 3742 
Q 1025 3253 1025 2328 
Q 1025 1406 1450 917 
Q 1875 428 2675 428 
Q 3081 428 3442 575 
Q 3803 722 4122 1019 
L 4122 359 
Q 3791 134 3420 21 
Q 3050 -91 2638 -91 
Q 1578 -91 968 557 
Q 359 1206 359 2328 
Q 359 3453 968 4101 
Q 1578 4750 2638 4750 
Q 3056 4750 3426 4639 
Q 3797 4528 4122 4306 
z
" transform="scale(0.015625)"/>
       <path id="DejaVuSans-47" d="M 3809 666 
L 3809 1919 
L 2778 1919 
L 2778 2438 
L 4434 2438 
L 4434 434 
Q 4069 175 3628 42 
Q 3188 -91 2688 -91 
Q 1594 -91 976 548 
Q 359 1188 359 2328 
Q 359 3472 976 4111 
Q 1594 4750 2688 4750 
Q 3144 4750 3555 4637 
Q 3966 4525 4313 4306 
L 4313 3634 
Q 3963 3931 3569 4081 
Q 3175 4231 2741 4231 
Q 1884 4231 1454 3753 
Q 1025 3275 1025 2328 
Q 1025 1384 1454 906 
Q 1884 428 2741 428 
Q 3075 428 3337 486 
Q 3600 544 3809 666 
z
" transform="scale(0.015625)"/>
      </defs>
      <use xlink:href="#DejaVuSans-6e"/>
      <use xlink:href="#DejaVuSans-44" x="63.378906"/>
      <use xlink:href="#DejaVuSans-43" x="140.380859"/>
      <use xlink:href="#DejaVuSans-47" x="210.205078"/>
     </g>
    </g>
   </g>
   <g id="line2d_14">
    <path d="M 73.832727 295.488 
L 74.555789 290.463014 
L 75.27885 280.534208 
L 76.001911 293.007986 
L 76.724973 284.84111 
L 77.448034 279.901223 
L 78.171095 276.950326 
L 78.894157 279.120754 
L 79.617218 277.313114 
L 80.340279 275.967792 
L 81.063341 276.429832 
L 81.786402 273.310079 
L 82.509463 277.61788 
L 83.232525 259.562991 
L 83.955586 272.989851 
L 84.678647 272.989851 
L 85.401709 251.437594 
L 86.12477 250.988155 
L 86.847832 268.284492 
L 87.570893 268.620631 
L 88.293954 257.916756 
L 89.740077 244.396643 
L 90.463138 247.318121 
L 91.909261 247.811516 
L 92.632322 242.373393 
L 93.355384 223.501131 
L 94.078445 215.399557 
L 94.801506 216.916966 
L 95.524568 228.821613 
L 96.247629 221.599697 
L 96.97069 235.719177 
L 97.693752 234.828994 
L 98.416813 220.774784 
L 99.139874 220.223352 
L 99.862936 220.58411 
L 100.585997 227.638221 
L 101.309059 242.841578 
L 102.03212 224.892386 
L 102.755181 240.574711 
L 103.478243 229.699798 
L 104.201304 229.064719 
L 104.924365 224.319712 
L 105.647427 209.925883 
L 106.370488 210.725629 
L 107.816611 192.362386 
L 108.539672 197.972751 
L 109.262733 190.184274 
L 109.985795 195.101525 
L 110.708856 193.190498 
L 111.431917 195.709867 
L 112.154979 197.660798 
L 113.601101 197.624852 
L 114.324163 197.76348 
L 115.047224 200.96947 
L 115.770285 197.236713 
L 116.493347 203.199524 
L 117.216408 198.756748 
L 117.93947 199.082337 
L 118.662531 205.549588 
L 119.385592 206.43287 
L 120.108654 206.107281 
L 120.831715 186.736865 
L 121.554776 195.940446 
L 122.277838 188.318335 
L 123.000899 196.092372 
L 123.72396 176.561503 
L 124.447022 177.279448 
L 125.170083 170.941296 
L 125.893144 173.786044 
L 126.616206 191.188648 
L 127.339267 184.387004 
L 128.062328 181.373915 
L 128.78539 184.050866 
L 129.508451 172.116829 
L 130.231512 164.83144 
L 130.954574 170.969791 
L 131.677635 167.61699 
L 132.400696 178.80454 
L 133.846819 155.508097 
L 134.569881 156.04508 
L 135.292942 166.694536 
L 136.016003 159.477908 
L 136.739065 147.181266 
L 137.462126 150.143666 
L 138.185187 138.267933 
L 138.908249 142.788463 
L 139.63131 167.654082 
L 140.354371 155.159915 
L 141.077433 151.665141 
L 141.800494 143.997273 
L 142.523555 171.132624 
L 143.246617 116.463332 
L 143.969678 134.43431 
L 144.692739 142.423333 
L 145.415801 155.676943 
L 146.138862 136.329836 
L 146.861923 144.6451 
L 147.584985 146.04052 
L 148.308046 152.253801 
L 149.031108 147.156121 
L 149.754169 130.1676 
L 150.47723 123.270005 
L 151.200292 75.348864 
L 151.923353 63.175292 
L 152.646414 68.348598 
L 153.369476 87.761524 
L 154.092537 87.832009 
L 154.815598 76.507251 
L 155.53866 82.542621 
L 156.261721 83.384272 
L 156.984782 93.813192 
L 157.707844 124.855586 
L 158.430905 122.192598 
L 159.153966 140.895924 
L 159.877028 146.438454 
L 160.600089 130.155426 
L 161.32315 118.126282 
L 162.046212 122.016077 
L 162.769273 126.631961 
L 163.492334 113.845283 
L 164.215396 94.265152 
L 164.938457 95.251767 
L 165.661519 120.452549 
L 166.38458 131.078203 
L 167.107641 119.558941 
L 167.830703 122.257623 
L 168.553764 110.547767 
L 169.276825 147.20533 
L 169.999887 124.692516 
L 170.722948 166.290567 
L 171.446009 150.731938 
L 172.169071 121.522714 
L 172.892132 119.991122 
L 173.615193 131.892838 
L 174.338255 154.851437 
L 175.061316 145.568148 
L 175.784377 146.85212 
L 176.507439 146.207376 
L 177.2305 131.709554 
L 177.953561 138.770446 
L 178.676623 132.005641 
L 179.399684 150.656431 
L 180.122745 142.859994 
L 180.845807 156.070879 
L 181.568868 156.060991 
L 182.29193 136.783071 
L 183.014991 155.916381 
L 183.738052 117.066484 
L 184.461114 153.554654 
L 185.184175 150.645941 
L 185.907236 115.904722 
L 186.630298 113.132873 
L 187.353359 121.90153 
L 188.07642 125.705934 
L 188.799482 131.790387 
L 189.522543 115.047454 
L 190.245604 136.106818 
L 190.968666 109.222963 
L 191.691727 134.653505 
L 192.414788 114.548577 
L 193.13785 135.188276 
L 193.860911 105.73025 
L 194.583972 112.866477 
L 195.307034 101.229493 
L 196.030095 95.055698 
L 196.753157 136.029089 
L 197.476218 107.612453 
L 198.199279 126.521812 
L 198.922341 111.427558 
L 199.645402 107.791504 
L 200.368463 100.224986 
L 201.091525 99.921016 
L 201.814586 119.482615 
L 202.537647 113.054718 
L 203.260709 107.85315 
L 203.98377 122.694416 
L 204.706831 105.522214 
L 205.429893 107.637213 
L 206.152954 119.793072 
L 206.876015 122.012505 
L 207.599077 143.277062 
L 208.322138 117.760908 
L 209.045199 117.721731 
L 209.768261 118.342687 
L 210.491322 104.474974 
L 211.214383 112.447484 
L 211.937445 93.754617 
L 212.660506 118.258476 
L 213.383568 107.394122 
L 214.106629 117.584504 
L 214.82969 121.977426 
L 215.552752 116.29876 
L 216.275813 103.067673 
L 216.998874 92.267331 
L 217.721936 104.671516 
L 218.444997 107.208463 
L 219.168058 107.599936 
L 219.89112 105.843027 
L 220.614181 90.558614 
L 221.337242 89.649121 
L 222.783365 102.774107 
L 224.229488 86.967441 
L 224.952549 95.53415 
L 225.67561 89.447701 
L 226.398672 89.440017 
L 227.121733 69.914511 
L 227.844794 97.016873 
L 228.567856 97.346699 
L 229.290917 82.81419 
L 230.013979 74.935297 
L 230.73704 114.363988 
L 231.460101 99.75631 
L 232.183163 95.625288 
L 232.906224 111.36053 
L 233.629285 100.045427 
L 235.075408 81.450913 
L 235.798469 76.118689 
L 236.521531 74.935297 
L 237.244592 80.567631 
L 237.967653 92.062744 
L 238.690715 120.448424 
L 239.413776 81.450913 
L 240.136837 88.436655 
L 240.859899 141.472253 
L 241.58296 90.832513 
L 242.306021 107.427347 
L 243.029083 104.053175 
L 243.752144 80.998437 
L 244.475206 84.035931 
L 245.198267 83.322725 
L 245.921328 85.35459 
L 246.64439 113.560965 
L 247.367451 112.373525 
L 248.090512 53.568 
L 248.813574 81.004204 
L 249.536635 102.755164 
L 250.259696 109.238616 
L 250.982758 110.656828 
L 251.705819 131.461672 
L 252.42888 84.556119 
L 253.151942 87.074985 
L 253.875003 76.571074 
L 254.598064 79.710981 
L 255.321126 79.190964 
L 256.044187 88.289026 
L 256.767248 85.099764 
L 257.49031 79.604245 
L 258.213371 125.944807 
L 258.936432 101.307085 
L 259.659494 100.168865 
L 260.382555 145.167639 
L 261.105617 101.365749 
L 261.828678 129.372257 
L 262.551739 124.762042 
L 263.274801 134.092708 
L 263.997862 95.933902 
L 264.720923 119.23417 
L 265.443985 132.261932 
L 266.167046 153.122337 
L 266.890107 112.838819 
L 267.613169 94.428102 
L 268.33623 136.235761 
L 269.059291 85.067626 
L 269.782353 102.719199 
L 270.505414 113.872896 
L 271.228475 97.715623 
L 271.951537 113.670164 
L 272.674598 111.953669 
L 273.397659 100.276551 
L 274.120721 110.510779 
L 274.843782 115.035451 
L 275.566843 134.6779 
L 276.289905 117.803583 
L 277.012966 149.970641 
L 277.736028 107.956592 
L 278.459089 131.475573 
L 279.18215 89.569063 
L 280.628273 101.192097 
L 281.351334 129.865291 
L 282.074396 93.959502 
L 282.797457 124.437288 
L 283.520518 136.903623 
L 284.24358 84.545514 
L 284.966641 96.745433 
L 285.689702 98.017353 
L 286.412764 105.084286 
L 287.135825 145.286829 
L 287.858886 105.791389 
L 288.581948 124.92781 
L 289.305009 132.378639 
L 290.02807 120.765508 
L 290.751132 88.219761 
L 291.474193 73.627192 
L 292.197255 136.203388 
L 292.920316 137.977753 
L 293.643377 85.934607 
L 294.366439 85.376578 
L 295.0895 95.820997 
L 295.812561 81.253241 
L 296.535623 97.97146 
L 297.258684 87.896363 
L 297.981745 122.047832 
L 298.704807 102.964147 
L 299.427868 103.452614 
L 300.150929 123.336637 
L 300.873991 101.135013 
L 301.597052 105.89279 
L 302.320113 95.639895 
L 303.043175 142.638133 
L 303.766236 87.43315 
L 304.489297 92.247656 
L 305.212359 87.426314 
L 305.93542 121.221475 
L 307.381543 66.687169 
L 308.104604 84.295836 
L 308.827666 126.806574 
L 309.550727 134.399564 
L 310.273788 73.72321 
L 310.99685 90.66469 
L 311.719911 96.128939 
L 312.442972 93.014795 
L 313.166034 100.218183 
L 313.889095 84.737354 
L 314.612156 136.552911 
L 315.335218 136.575071 
L 316.058279 150.403755 
L 316.78134 136.700357 
L 317.504402 109.850829 
L 318.227463 155.995526 
L 318.950524 88.686764 
L 319.673586 106.317361 
L 320.396647 102.498915 
L 321.119708 81.078285 
L 321.84277 111.072972 
L 322.565831 97.083888 
L 323.288892 89.708384 
L 324.011954 87.914694 
L 324.735015 90.582803 
L 325.458077 120.734864 
L 326.181138 109.231118 
L 326.904199 124.927665 
L 327.627261 91.695205 
L 328.350322 116.917581 
L 329.073383 85.552785 
L 329.796445 89.225223 
L 330.519506 119.630254 
L 331.242567 94.531635 
L 331.965629 76.651421 
L 332.68869 133.334778 
L 333.411751 91.922048 
L 334.134813 105.765929 
L 334.857874 123.719296 
L 335.580935 91.303292 
L 336.303997 124.569662 
L 337.027058 100.327982 
L 337.750119 88.298264 
L 338.473181 90.372405 
L 339.196242 116.387757 
L 339.919304 98.394176 
L 340.642365 93.30753 
L 341.365426 105.107318 
L 342.088488 97.771611 
L 342.811549 83.581483 
L 343.53461 86.850893 
L 344.257672 72.324123 
L 345.703794 97.050171 
L 346.426856 84.61741 
L 347.149917 119.942317 
L 347.872978 100.732444 
L 348.59604 104.12763 
L 349.319101 118.465454 
L 350.042162 108.088408 
L 350.765224 132.216262 
L 351.488285 111.728741 
L 352.211346 110.019637 
L 352.934408 127.651884 
L 353.657469 127.873543 
L 354.38053 65.450628 
L 355.103592 127.664126 
L 355.826653 133.001704 
L 356.549715 90.860014 
L 357.272776 92.444031 
L 357.995837 117.387259 
L 358.718899 75.966495 
L 359.44196 99.627894 
L 360.165021 91.591304 
L 360.888083 89.204596 
L 361.611144 97.041465 
L 362.334205 95.563345 
L 363.057267 78.816773 
L 363.780328 91.977531 
L 364.503389 143.757368 
L 365.226451 120.462086 
L 365.949512 144.361619 
L 366.672573 123.613597 
L 367.395635 85.783961 
L 368.118696 99.400737 
L 368.841757 94.946926 
L 369.564819 84.947177 
L 370.28788 115.267991 
L 371.010941 106.043488 
L 371.734003 104.339148 
L 372.457064 104.414052 
L 373.180126 131.235788 
L 373.903187 129.894942 
L 374.626248 109.15797 
L 375.34931 124.825518 
L 376.072371 67.431211 
L 376.795432 77.095586 
L 377.518494 84.165024 
L 378.241555 63.989427 
L 378.964616 80.308905 
L 379.687678 107.311405 
L 380.410739 67.182783 
L 381.1338 127.585129 
L 381.856862 103.604552 
L 382.579923 123.007844 
L 383.302984 76.399336 
L 384.026046 72.666818 
L 384.749107 109.25635 
L 385.472168 78.145141 
L 386.19523 113.009718 
L 386.918291 105.066564 
L 387.641353 83.929639 
L 389.087475 128.989271 
L 389.810537 108.063214 
L 390.533598 130.998537 
L 391.256659 116.196765 
L 391.979721 91.112419 
L 392.702782 93.550236 
L 393.425843 82.758013 
L 394.148905 134.274966 
L 394.871966 79.331838 
L 395.595027 80.339522 
L 396.318089 89.723149 
L 397.04115 70.241752 
L 397.764211 87.764997 
L 398.487273 92.364526 
L 398.487273 92.364526 
" clip-path="url(#pf83a0e22f0)" style="fill: none; stroke: #ff0000; stroke-width: 1.5; stroke-linecap: square"/>
   </g>
   <g id="patch_3">
    <path d="M 57.6 307.584 
L 57.6 41.472 
" style="fill: none; stroke: #000000; stroke-width: 0.8; stroke-linejoin: miter; stroke-linecap: square"/>
   </g>
   <g id="patch_4">
    <path d="M 414.72 307.584 
L 414.72 41.472 
" style="fill: none; stroke: #000000; stroke-width: 0.8; stroke-linejoin: miter; stroke-linecap: square"/>
   </g>
   <g id="patch_5">
    <path d="M 57.6 307.584 
L 414.72 307.584 
" style="fill: none; stroke: #000000; stroke-width: 0.8; stroke-linejoin: miter; stroke-linecap: square"/>
   </g>
   <g id="patch_6">
    <path d="M 57.6 41.472 
L 414.72 41.472 
" style="fill: none; stroke: #000000; stroke-width: 0.8; stroke-linejoin: miter; stroke-linecap: square"/>
   </g>
   <g id="legend_1">
    <g id="patch_7">
     <path d="M 64.6 64.150125 
L 123.495312 64.150125 
Q 125.495312 64.150125 125.495312 62.150125 
L 125.495312 48.472 
Q 125.495312 46.472 123.495312 46.472 
L 64.6 46.472 
Q 62.6 46.472 62.6 48.472 
L 62.6 62.150125 
Q 62.6 64.150125 64.6 64.150125 
z
" style="fill: #ffffff; opacity: 0.8; stroke: #cccccc; stroke-linejoin: miter"/>
    </g>
    <g id="line2d_15">
     <path d="M 66.6 54.570438 
L 76.6 54.570438 
L 86.6 54.570438 
" style="fill: none; stroke: #ff0000; stroke-width: 1.5; stroke-linecap: square"/>
    </g>
    <g id="text_16">
     <!-- k=20 -->
     <g transform="translate(94.6 58.070438) scale(0.1 -0.1)">
      <defs>
       <path id="DejaVuSans-6b" d="M 581 4863 
L 1159 4863 
L 1159 1991 
L 2875 3500 
L 3609 3500 
L 1753 1863 
L 3688 0 
L 2938 0 
L 1159 1709 
L 1159 0 
L 581 0 
L 581 4863 
z
" transform="scale(0.015625)"/>
       <path id="DejaVuSans-3d" d="M 678 2906 
L 4684 2906 
L 4684 2381 
L 678 2381 
L 678 2906 
z
M 678 1631 
L 4684 1631 
L 4684 1100 
L 678 1100 
L 678 1631 
z
" transform="scale(0.015625)"/>
      </defs>
      <use xlink:href="#DejaVuSans-6b"/>
      <use xlink:href="#DejaVuSans-3d" x="57.910156"/>
      <use xlink:href="#DejaVuSans-32" x="141.699219"/>
      <use xlink:href="#DejaVuSans-30" x="205.322266"/>
     </g>
    </g>
   </g>
  </g>
 </g>
 <defs>
  <clipPath id="pf83a0e22f0">
   <rect x="57.6" y="41.472" width="357.12" height="266.112"/>
  </clipPath>
 </defs>
</svg>
