<?xml version="1.0" encoding="utf-8" standalone="no"?>
<!DOCTYPE svg PUBLIC "-//W3C//DTD SVG 1.1//EN"
  "http://www.w3.org/Graphics/SVG/1.1/DTD/svg11.dtd">
<svg xmlns:xlink="http://www.w3.org/1999/xlink" width="460.8pt" height="345.6pt" viewBox="0 0 460.8 345.6" xmlns="http://www.w3.org/2000/svg" version="1.1">
 <metadata>
  <rdf:RDF xmlns:dc="http://purl.org/dc/elements/1.1/" xmlns:cc="http://creativecommons.org/ns#" xmlns:rdf="http://www.w3.org/1999/02/22-rdf-syntax-ns#">
   <cc:Work>
    <dc:type rdf:resource="http://purl.org/dc/dcmitype/StillImage"/>
    <dc:date>2026-04-05T17:55:42.617428</dc:date>
    <dc:format>image/svg+xml</dc:format>
    <dc:creator>
     <cc:Agent>
      <dc:title>Matplotlib v3.9.4, https://matplotlib.org/</dc:title>
     </cc:Agent>
    </dc:creator>
   </cc:Work>
  </rdf:RDF>
 </metadata>
 <defs>
  <style type="text/css">*{stroke-linejoin: round; stroke-linecap: butt}</style>
 </defs>
 <g id="figure_1">
  <g id="patch_1">
   <path d="M 0 345.6 
L 460.8 345.6 
L 460.8 0 
L 0 0 
z
" style="fill: #ffffff"/>
  </g>
  <g id="axes_1">
   <g id="patch_2">
    <path d="M 57.6 307.584 
L 414.72 307.584 
L 414.72 41.472 
L 57.6 41.472 
z
" style="fill: #ffffff"/>
   </g>
   <g id="matplotlib.axis_1">
    <g id="xtick_1">
     <g id="line2d_1">
      <defs>
       <path id="meeb6ed79e4" d="M 0 0 
L 0 3.5 
" style="stroke: #000000; stroke-width: 0.8"/>
      </defs>
      <g>
       <use xlink:href="#meeb6ed79e4" x="73.832727" y="307.584" style="stroke: #000000; stroke-width: 0.8"/>
      </g>
     </g>
     <g id="text_1">
      <!-- 0 -->
      <g transform="translate(70.651477 322.182437) scale(0.1 -0.1)">
       <defs>
        <path id="DejaVuSans-30" d="M 2034 4250 
Q 1547 4250 1301 3770 
Q 1056 3291 1056 2328 
Q 1056 1369 1301 889 
Q 1547 409 2034 409 
Q 2525 409 2770 889 
Q 3016 1369 3016 2328 
Q 3016 3291 2770 3770 
Q 2525 4250 2034 4250 
z
M 2034 4750 
Q 2819 4750 3233 4129 
Q 3647 3509 3647 2328 
Q 3647 1150 3233 529 
Q 2819 -91 2034 -91 
Q 1250 -91 836 529 
Q 422 1150 422 2328 
Q 422 3509 836 4129 
Q 1250 4750 2034 4750 
z
" transform="scale(0.015625)"/>
       </defs>
       <use xlink:href="#DejaVuSans-30"/>
      </g>
     </g>
    </g>
    <g id="xtick_2">
     <g id="line2d_2">
      <g>
       <use xlink:href="#meeb6ed79e4" x="146.138862" y="307.584" style="stroke: #000000; stroke-width: 0.8"/>
      </g>
     </g>
     <g id="text_2">
      <!-- 100 -->
      <g transform="translate(136.595112 322.182437) scale(0.1 -0.1)">
       <defs>
        <path id="DejaVuSans-31" d="M 794 531 
L 1825 531 
L 1825 4091 
L 703 3866 
L 703 4441 
L 1819 4666 
L 2450 4666 
L 2450 531 
L 3481 531 
L 3481 0 
L 794 0 
L 794 531 
z
" transform="scale(0.015625)"/>
       </defs>
       <use xlink:href="#DejaVuSans-31"/>
       <use xlink:href="#DejaVuSans-30" x="63.623047"/>
       <use xlink:href="#DejaVuSans-30" x="127.246094"/>
      </g>
     </g>
    </g>
    <g id="xtick_3">
     <g id="line2d_3">
      <g>
       <use xlink:href="#meeb6ed79e4" x="218.444997" y="307.584" style="stroke: #000000; stroke-width: 0.8"/>
      </g>
     </g>
     <g id="text_3">
      <!-- 200 -->
      <g transform="translate(208.901247 322.182437) scale(0.1 -0.1)">
       <defs>
        <path id="DejaVuSans-32" d="M 1228 531 
L 3431 531 
L 3431 0 
L 469 0 
L 469 531 
Q 828 903 1448 1529 
Q 2069 2156 2228 2338 
Q 2531 2678 2651 2914 
Q 2772 3150 2772 3378 
Q 2772 3750 2511 3984 
Q 2250 4219 1831 4219 
Q 1534 4219 1204 4116 
Q 875 4013 500 3803 
L 500 4441 
Q 881 4594 1212 4672 
Q 1544 4750 1819 4750 
Q 2544 4750 2975 4387 
Q 3406 4025 3406 3419 
Q 3406 3131 3298 2873 
Q 3191 2616 2906 2266 
Q 2828 2175 2409 1742 
Q 1991 1309 1228 531 
z
" transform="scale(0.015625)"/>
       </defs>
       <use xlink:href="#DejaVuSans-32"/>
       <use xlink:href="#DejaVuSans-30" x="63.623047"/>
       <use xlink:href="#DejaVuSans-30" x="127.246094"/>
      </g>
     </g>
    </g>
    <g id="xtick_4">
     <g id="line2d_4">
      <g>
       <use xlink:href="#meeb6ed79e4" x="290.751132" y="307.584" style="stroke: #000000; stroke-width: 0.8"/>
      </g>
     </g>
     <g id="text_4">
      <!-- 300 -->
      <g transform="translate(281.207382 322.182437) scale(0.1 -0.1)">
       <defs>
        <path id="DejaVuSans-33" d="M 2597 2516 
Q 3050 2419 3304 2112 
Q 3559 1806 3559 1356 
Q 3559 666 3084 287 
Q 2609 -91 1734 -91 
Q 1441 -91 1130 -33 
Q 819 25 488 141 
L 488 750 
Q 750 597 1062 519 
Q 1375 441 1716 441 
Q 2309 441 2620 675 
Q 2931 909 2931 1356 
Q 2931 1769 2642 2001 
Q 2353 2234 1838 2234 
L 1294 2234 
L 1294 2753 
L 1863 2753 
Q 2328 2753 2575 2939 
Q 2822 3125 2822 3475 
Q 2822 3834 2567 4026 
Q 2313 4219 1838 4219 
Q 1578 4219 1281 4162 
Q 984 4106 628 3988 
L 628 4550 
Q 988 4650 1302 4700 
Q 1616 4750 1894 4750 
Q 2613 4750 3031 4423 
Q 3450 4097 3450 3541 
Q 3450 3153 3228 2886 
Q 3006 2619 2597 2516 
z
" transform="scale(0.015625)"/>
       </defs>
       <use xlink:href="#DejaVuSans-33"/>
       <use xlink:href="#DejaVuSans-30" x="63.623047"/>
       <use xlink:href="#DejaVuSans-30" x="127.246094"/>
      </g>
     </g>
    </g>
    <g id="xtick_5">
     <g id="line2d_5">
      <g>
       <use xlink:href="#meeb6ed79e4" x="363.057267" y="307.584" style="stroke: #000000; stroke-width: 0.8"/>
      </g>
     </g>
     <g id="text_5">
      <!-- 400 -->
      <g transform="translate(353.513517 322.182437) scale(0.1 -0.1)">
       <defs>
        <path id="DejaVuSans-34" d="M 2419 4116 
L 825 1625 
L 2419 1625 
L 2419 4116 
z
M 2253 4666 
L 3047 4666 
L 3047 1625 
L 3713 1625 
L 3713 1100 
L 3047 1100 
L 3047 0 
L 2419 0 
L 2419 1100 
L 313 1100 
L 313 1709 
L 2253 4666 
z
" transform="scale(0.015625)"/>
       </defs>
       <use xlink:href="#DejaVuSans-34"/>
       <use xlink:href="#DejaVuSans-30" x="63.623047"/>
       <use xlink:href="#DejaVuSans-30" x="127.246094"/>
      </g>
     </g>
    </g>
    <g id="text_6">
     <!-- Epochs -->
     <g transform="translate(218.244375 335.860562) scale(0.1 -0.1)">
      <defs>
       <path id="DejaVuSans-45" d="M 628 4666 
L 3578 4666 
L 3578 4134 
L 1259 4134 
L 1259 2753 
L 3481 2753 
L 3481 2222 
L 1259 2222 
L 1259 531 
L 3634 531 
L 3634 0 
L 628 0 
L 628 4666 
z
" transform="scale(0.015625)"/>
       <path id="DejaVuSans-70" d="M 1159 525 
L 1159 -1331 
L 581 -1331 
L 581 3500 
L 1159 3500 
L 1159 2969 
Q 1341 3281 1617 3432 
Q 1894 3584 2278 3584 
Q 2916 3584 3314 3078 
Q 3713 2572 3713 1747 
Q 3713 922 3314 415 
Q 2916 -91 2278 -91 
Q 1894 -91 1617 61 
Q 1341 213 1159 525 
z
M 3116 1747 
Q 3116 2381 2855 2742 
Q 2594 3103 2138 3103 
Q 1681 3103 1420 2742 
Q 1159 2381 1159 1747 
Q 1159 1113 1420 752 
Q 1681 391 2138 391 
Q 2594 391 2855 752 
Q 3116 1113 3116 1747 
z
" transform="scale(0.015625)"/>
       <path id="DejaVuSans-6f" d="M 1959 3097 
Q 1497 3097 1228 2736 
Q 959 2375 959 1747 
Q 959 1119 1226 758 
Q 1494 397 1959 397 
Q 2419 397 2687 759 
Q 2956 1122 2956 1747 
Q 2956 2369 2687 2733 
Q 2419 3097 1959 3097 
z
M 1959 3584 
Q 2709 3584 3137 3096 
Q 3566 2609 3566 1747 
Q 3566 888 3137 398 
Q 2709 -91 1959 -91 
Q 1206 -91 779 398 
Q 353 888 353 1747 
Q 353 2609 779 3096 
Q 1206 3584 1959 3584 
z
" transform="scale(0.015625)"/>
       <path id="DejaVuSans-63" d="M 3122 3366 
L 3122 2828 
Q 2878 2963 2633 3030 
Q 2388 3097 2138 3097 
Q 1578 3097 1268 2742 
Q 959 2388 959 1747 
Q 959 1106 1268 751 
Q 1578 397 2138 397 
Q 2388 397 2633 464 
Q 2878 531 3122 666 
L 3122 134 
Q 2881 22 2623 -34 
Q 2366 -91 2075 -91 
Q 1284 -91 818 406 
Q 353 903 353 1747 
Q 353 2603 823 3093 
Q 1294 3584 2113 3584 
Q 2378 3584 2631 3529 
Q 2884 3475 3122 3366 
z
" transform="scale(0.015625)"/>
       <path id="DejaVuSans-68" d="M 3513 2113 
L 3513 0 
L 2938 0 
L 2938 2094 
Q 2938 2591 2744 2837 
Q 2550 3084 2163 3084 
Q 1697 3084 1428 2787 
Q 1159 2491 1159 1978 
L 1159 0 
L 581 0 
L 581 4863 
L 1159 4863 
L 1159 2956 
Q 1366 3272 1645 3428 
Q 1925 3584 2291 3584 
Q 2894 3584 3203 3211 
Q 3513 2838 3513 2113 
z
" transform="scale(0.015625)"/>
       <path id="DejaVuSans-73" d="M 2834 3397 
L 2834 2853 
Q 2591 2978 2328 3040 
Q 2066 3103 1784 3103 
Q 1356 3103 1142 2972 
Q 928 2841 928 2578 
Q 928 2378 1081 2264 
Q 1234 2150 1697 2047 
L 1894 2003 
Q 2506 1872 2764 1633 
Q 3022 1394 3022 966 
Q 3022 478 2636 193 
Q 2250 -91 1575 -91 
Q 1294 -91 989 -36 
Q 684 19 347 128 
L 347 722 
Q 666 556 975 473 
Q 1284 391 1588 391 
Q 1994 391 2212 530 
Q 2431 669 2431 922 
Q 2431 1156 2273 1281 
Q 2116 1406 1581 1522 
L 1381 1569 
Q 847 1681 609 1914 
Q 372 2147 372 2553 
Q 372 3047 722 3315 
Q 1072 3584 1716 3584 
Q 2034 3584 2315 3537 
Q 2597 3491 2834 3397 
z
" transform="scale(0.015625)"/>
      </defs>
      <use xlink:href="#DejaVuSans-45"/>
      <use xlink:href="#DejaVuSans-70" x="63.183594"/>
      <use xlink:href="#DejaVuSans-6f" x="126.660156"/>
      <use xlink:href="#DejaVuSans-63" x="187.841797"/>
      <use xlink:href="#DejaVuSans-68" x="242.822266"/>
      <use xlink:href="#DejaVuSans-73" x="306.201172"/>
     </g>
    </g>
   </g>
   <g id="matplotlib.axis_2">
    <g id="ytick_1">
     <g id="line2d_6">
      <defs>
       <path id="mfbbea57769" d="M 0 0 
L -3.5 0 
" style="stroke: #000000; stroke-width: 0.8"/>
      </defs>
      <g>
       <use xlink:href="#mfbbea57769" x="57.6" y="271.100258" style="stroke: #000000; stroke-width: 0.8"/>
      </g>
     </g>
     <g id="text_7">
      <!-- 0.27 -->
      <g transform="translate(28.334375 274.899476) scale(0.1 -0.1)">
       <defs>
        <path id="DejaVuSans-2e" d="M 684 794 
L 1344 794 
L 1344 0 
L 684 0 
L 684 794 
z
" transform="scale(0.015625)"/>
        <path id="DejaVuSans-37" d="M 525 4666 
L 3525 4666 
L 3525 4397 
L 1831 0 
L 1172 0 
L 2766 4134 
L 525 4134 
L 525 4666 
z
" transform="scale(0.015625)"/>
       </defs>
       <use xlink:href="#DejaVuSans-30"/>
       <use xlink:href="#DejaVuSans-2e" x="63.623047"/>
       <use xlink:href="#DejaVuSans-32" x="95.410156"/>
       <use xlink:href="#DejaVuSans-37" x="159.033203"/>
      </g>
     </g>
    </g>
    <g id="ytick_2">
     <g id="line2d_7">
      <g>
       <use xlink:href="#mfbbea57769" x="57.6" y="214.820891" style="stroke: #000000; stroke-width: 0.8"/>
      </g>
     </g>
     <g id="text_8">
      <!-- 0.28 -->
      <g transform="translate(28.334375 218.62011) scale(0.1 -0.1)">
       <defs>
        <path id="DejaVuSans-38" d="M 2034 2216 
Q 1584 2216 1326 1975 
Q 1069 1734 1069 1313 
Q 1069 891 1326 650 
Q 1584 409 2034 409 
Q 2484 409 2743 651 
Q 3003 894 3003 1313 
Q 3003 1734 2745 1975 
Q 2488 2216 2034 2216 
z
M 1403 2484 
Q 997 2584 770 2862 
Q 544 3141 544 3541 
Q 544 4100 942 4425 
Q 1341 4750 2034 4750 
Q 2731 4750 3128 4425 
Q 3525 4100 3525 3541 
Q 3525 3141 3298 2862 
Q 3072 2584 2669 2484 
Q 3125 2378 3379 2068 
Q 3634 1759 3634 1313 
Q 3634 634 3220 271 
Q 2806 -91 2034 -91 
Q 1263 -91 848 271 
Q 434 634 434 1313 
Q 434 1759 690 2068 
Q 947 2378 1403 2484 
z
M 1172 3481 
Q 1172 3119 1398 2916 
Q 1625 2713 2034 2713 
Q 2441 2713 2670 2916 
Q 2900 3119 2900 3481 
Q 2900 3844 2670 4047 
Q 2441 4250 2034 4250 
Q 1625 4250 1398 4047 
Q 1172 3844 1172 3481 
z
" transform="scale(0.015625)"/>
       </defs>
       <use xlink:href="#DejaVuSans-30"/>
       <use xlink:href="#DejaVuSans-2e" x="63.623047"/>
       <use xlink:href="#DejaVuSans-32" x="95.410156"/>
       <use xlink:href="#DejaVuSans-38" x="159.033203"/>
      </g>
     </g>
    </g>
    <g id="ytick_3">
     <g id="line2d_8">
      <g>
       <use xlink:href="#mfbbea57769" x="57.6" y="158.541525" style="stroke: #000000; stroke-width: 0.8"/>
      </g>
     </g>
     <g id="text_9">
      <!-- 0.29 -->
      <g transform="translate(28.334375 162.340743) scale(0.1 -0.1)">
       <defs>
        <path id="DejaVuSans-39" d="M 703 97 
L 703 672 
Q 941 559 1184 500 
Q 1428 441 1663 441 
Q 2288 441 2617 861 
Q 2947 1281 2994 2138 
Q 2813 1869 2534 1725 
Q 2256 1581 1919 1581 
Q 1219 1581 811 2004 
Q 403 2428 403 3163 
Q 403 3881 828 4315 
Q 1253 4750 1959 4750 
Q 2769 4750 3195 4129 
Q 3622 3509 3622 2328 
Q 3622 1225 3098 567 
Q 2575 -91 1691 -91 
Q 1453 -91 1209 -44 
Q 966 3 703 97 
z
M 1959 2075 
Q 2384 2075 2632 2365 
Q 2881 2656 2881 3163 
Q 2881 3666 2632 3958 
Q 2384 4250 1959 4250 
Q 1534 4250 1286 3958 
Q 1038 3666 1038 3163 
Q 1038 2656 1286 2365 
Q 1534 2075 1959 2075 
z
" transform="scale(0.015625)"/>
       </defs>
       <use xlink:href="#DejaVuSans-30"/>
       <use xlink:href="#DejaVuSans-2e" x="63.623047"/>
       <use xlink:href="#DejaVuSans-32" x="95.410156"/>
       <use xlink:href="#DejaVuSans-39" x="159.033203"/>
      </g>
     </g>
    </g>
    <g id="ytick_4">
     <g id="line2d_9">
      <g>
       <use xlink:href="#mfbbea57769" x="57.6" y="102.262158" style="stroke: #000000; stroke-width: 0.8"/>
      </g>
     </g>
     <g id="text_10">
      <!-- 0.30 -->
      <g transform="translate(28.334375 106.061377) scale(0.1 -0.1)">
       <use xlink:href="#DejaVuSans-30"/>
       <use xlink:href="#DejaVuSans-2e" x="63.623047"/>
       <use xlink:href="#DejaVuSans-33" x="95.410156"/>
       <use xlink:href="#DejaVuSans-30" x="159.033203"/>
      </g>
     </g>
    </g>
    <g id="ytick_5">
     <g id="line2d_10">
      <g>
       <use xlink:href="#mfbbea57769" x="57.6" y="45.982792" style="stroke: #000000; stroke-width: 0.8"/>
      </g>
     </g>
     <g id="text_11">
      <!-- 0.31 -->
      <g transform="translate(28.334375 49.78201) scale(0.1 -0.1)">
       <use xlink:href="#DejaVuSans-30"/>
       <use xlink:href="#DejaVuSans-2e" x="63.623047"/>
       <use xlink:href="#DejaVuSans-33" x="95.410156"/>
       <use xlink:href="#DejaVuSans-31" x="159.033203"/>
      </g>
     </g>
    </g>
    <g id="text_12">
     <!-- Prediction Loss -->
     <g transform="translate(22.254687 211.920969) rotate(-90) scale(0.1 -0.1)">
      <defs>
       <path id="DejaVuSans-50" d="M 1259 4147 
L 1259 2394 
L 2053 2394 
Q 2494 2394 2734 2622 
Q 2975 2850 2975 3272 
Q 2975 3691 2734 3919 
Q 2494 4147 2053 4147 
L 1259 4147 
z
M 628 4666 
L 2053 4666 
Q 2838 4666 3239 4311 
Q 3641 3956 3641 3272 
Q 3641 2581 3239 2228 
Q 2838 1875 2053 1875 
L 1259 1875 
L 1259 0 
L 628 0 
L 628 4666 
z
" transform="scale(0.015625)"/>
       <path id="DejaVuSans-72" d="M 2631 2963 
Q 2534 3019 2420 3045 
Q 2306 3072 2169 3072 
Q 1681 3072 1420 2755 
Q 1159 2438 1159 1844 
L 1159 0 
L 581 0 
L 581 3500 
L 1159 3500 
L 1159 2956 
Q 1341 3275 1631 3429 
Q 1922 3584 2338 3584 
Q 2397 3584 2469 3576 
Q 2541 3569 2628 3553 
L 2631 2963 
z
" transform="scale(0.015625)"/>
       <path id="DejaVuSans-65" d="M 3597 1894 
L 3597 1613 
L 953 1613 
Q 991 1019 1311 708 
Q 1631 397 2203 397 
Q 2534 397 2845 478 
Q 3156 559 3463 722 
L 3463 178 
Q 3153 47 2828 -22 
Q 2503 -91 2169 -91 
Q 1331 -91 842 396 
Q 353 884 353 1716 
Q 353 2575 817 3079 
Q 1281 3584 2069 3584 
Q 2775 3584 3186 3129 
Q 3597 2675 3597 1894 
z
M 3022 2063 
Q 3016 2534 2758 2815 
Q 2500 3097 2075 3097 
Q 1594 3097 1305 2825 
Q 1016 2553 972 2059 
L 3022 2063 
z
" transform="scale(0.015625)"/>
       <path id="DejaVuSans-64" d="M 2906 2969 
L 2906 4863 
L 3481 4863 
L 3481 0 
L 2906 0 
L 2906 525 
Q 2725 213 2448 61 
Q 2172 -91 1784 -91 
Q 1150 -91 751 415 
Q 353 922 353 1747 
Q 353 2572 751 3078 
Q 1150 3584 1784 3584 
Q 2172 3584 2448 3432 
Q 2725 3281 2906 2969 
z
M 947 1747 
Q 947 1113 1208 752 
Q 1469 391 1925 391 
Q 2381 391 2643 752 
Q 2906 1113 2906 1747 
Q 2906 2381 2643 2742 
Q 2381 3103 1925 3103 
Q 1469 3103 1208 2742 
Q 947 2381 947 1747 
z
" transform="scale(0.015625)"/>
       <path id="DejaVuSans-69" d="M 603 3500 
L 1178 3500 
L 1178 0 
L 603 0 
L 603 3500 
z
M 603 4863 
L 1178 4863 
L 1178 4134 
L 603 4134 
L 603 4863 
z
" transform="scale(0.015625)"/>
       <path id="DejaVuSans-74" d="M 1172 4494 
L 1172 3500 
L 2356 3500 
L 2356 3053 
L 1172 3053 
L 1172 1153 
Q 1172 725 1289 603 
Q 1406 481 1766 481 
L 2356 481 
L 2356 0 
L 1766 0 
Q 1100 0 847 248 
Q 594 497 594 1153 
L 594 3053 
L 172 3053 
L 172 3500 
L 594 3500 
L 594 4494 
L 1172 4494 
z
" transform="scale(0.015625)"/>
       <path id="DejaVuSans-6e" d="M 3513 2113 
L 3513 0 
L 2938 0 
L 2938 2094 
Q 2938 2591 2744 2837 
Q 2550 3084 2163 3084 
Q 1697 3084 1428 2787 
Q 1159 2491 1159 1978 
L 1159 0 
L 581 0 
L 581 3500 
L 1159 3500 
L 1159 2956 
Q 1366 3272 1645 3428 
Q 1925 3584 2291 3584 
Q 2894 3584 3203 3211 
Q 3513 2838 3513 2113 
z
" transform="scale(0.015625)"/>
       <path id="DejaVuSans-20" transform="scale(0.015625)"/>
       <path id="DejaVuSans-4c" d="M 628 4666 
L 1259 4666 
L 1259 531 
L 3531 531 
L 3531 0 
L 628 0 
L 628 4666 
z
" transform="scale(0.015625)"/>
      </defs>
      <use xlink:href="#DejaVuSans-50"/>
      <use xlink:href="#DejaVuSans-72" x="58.552734"/>
      <use xlink:href="#DejaVuSans-65" x="97.416016"/>
      <use xlink:href="#DejaVuSans-64" x="158.939453"/>
      <use xlink:href="#DejaVuSans-69" x="222.416016"/>
      <use xlink:href="#DejaVuSans-63" x="250.199219"/>
      <use xlink:href="#DejaVuSans-74" x="305.179688"/>
      <use xlink:href="#DejaVuSans-69" x="344.388672"/>
      <use xlink:href="#DejaVuSans-6f" x="372.171875"/>
      <use xlink:href="#DejaVuSans-6e" x="433.353516"/>
      <use xlink:href="#DejaVuSans-20" x="496.732422"/>
      <use xlink:href="#DejaVuSans-4c" x="528.519531"/>
      <use xlink:href="#DejaVuSans-6f" x="582.482422"/>
      <use xlink:href="#DejaVuSans-73" x="643.664062"/>
      <use xlink:href="#DejaVuSans-73" x="695.763672"/>
     </g>
    </g>
   </g>
   <g id="line2d_11">
    <path d="M 73.832727 293.365768 
L 74.555789 292.186825 
L 75.27885 292.558002 
L 76.001911 291.755099 
L 76.724973 290.208502 
L 77.448034 291.819506 
L 78.171095 291.661844 
L 78.894157 292.184309 
L 80.340279 290.271399 
L 81.063341 288.558418 
L 81.786402 286.437528 
L 82.509463 287.525228 
L 83.232525 287.341568 
L 83.955586 285.516043 
L 84.678647 285.09153 
L 85.401709 284.906528 
L 86.12477 285.66968 
L 86.847832 284.583657 
L 89.017016 286.698676 
L 89.740077 285.697187 
L 90.463138 285.821639 
L 91.1862 286.069034 
L 91.909261 287.750483 
L 93.355384 293.160808 
L 94.078445 294.088665 
L 94.801506 295.488 
L 95.524568 292.511542 
L 96.247629 290.591755 
L 96.97069 287.866717 
L 97.693752 287.018361 
L 98.416813 287.341065 
L 99.139874 288.307165 
L 99.862936 289.016979 
L 100.585997 290.190891 
L 101.309059 289.320395 
L 102.03212 289.656349 
L 102.755181 286.367251 
L 103.478243 288.535439 
L 104.201304 287.729182 
L 104.924365 287.643475 
L 105.647427 287.277497 
L 106.370488 289.299429 
L 107.093549 288.451576 
L 108.539672 284.956343 
L 109.262733 288.017838 
L 109.985795 288.382977 
L 111.431917 285.936196 
L 112.154979 283.532856 
L 112.87804 281.718233 
L 113.601101 282.096957 
L 114.324163 283.769349 
L 115.047224 283.807087 
L 115.770285 286.738427 
L 116.493347 281.313511 
L 117.216408 277.832702 
L 117.93947 275.926836 
L 118.662531 272.949707 
L 119.385592 272.584233 
L 120.108654 274.360447 
L 120.831715 274.468965 
L 121.554776 276.410725 
L 122.277838 276.540041 
L 123.000899 279.842558 
L 123.72396 277.270486 
L 124.447022 280.714898 
L 125.170083 276.003487 
L 125.893144 275.233794 
L 126.616206 275.483202 
L 127.339267 269.750174 
L 128.062328 272.787684 
L 128.78539 269.801163 
L 129.508451 276.047095 
L 130.231512 279.209394 
L 130.954574 271.715247 
L 131.677635 269.198525 
L 132.400696 268.297167 
L 133.123758 270.642139 
L 133.846819 272.045163 
L 134.569881 275.688834 
L 135.292942 274.573962 
L 136.016003 272.89201 
L 136.739065 276.17507 
L 137.462126 275.309606 
L 138.185187 279.662756 
L 138.908249 283.264663 
L 139.63131 281.271915 
L 140.354371 276.790791 
L 141.077433 274.116071 
L 142.523555 259.761612 
L 143.246617 253.613296 
L 143.969678 251.897631 
L 144.692739 252.974932 
L 145.415801 256.303949 
L 146.138862 256.676971 
L 147.584985 260.673369 
L 148.308046 261.268124 
L 149.031108 255.796915 
L 149.754169 263.279321 
L 150.47723 256.72058 
L 151.200292 257.114903 
L 151.923353 257.753769 
L 152.646414 254.964828 
L 153.369476 247.095983 
L 154.092537 249.897168 
L 154.815598 253.975751 
L 155.53866 258.856565 
L 156.261721 251.442759 
L 156.984782 246.31891 
L 157.707844 237.382659 
L 158.430905 245.585949 
L 159.153966 244.176551 
L 160.600089 256.233672 
L 161.32315 260.124906 
L 162.046212 259.85688 
L 162.769273 245.266097 
L 163.492334 252.09018 
L 164.215396 251.118378 
L 164.938457 248.4029 
L 165.661519 257.525663 
L 166.38458 246.664425 
L 167.107641 240.197094 
L 167.830703 247.428247 
L 168.553764 246.594148 
L 169.276825 241.034548 
L 169.999887 246.477075 
L 170.722948 249.176115 
L 172.169071 238.341546 
L 172.892132 238.46516 
L 173.615193 234.041901 
L 174.338255 231.106703 
L 175.784377 226.494753 
L 176.507439 234.782241 
L 178.676623 244.802671 
L 179.399684 246.010463 
L 180.122745 250.12561 
L 180.845807 252.693321 
L 181.568868 250.551968 
L 182.29193 247.524018 
L 183.014991 240.615569 
L 183.738052 241.554665 
L 184.461114 239.852753 
L 185.184175 231.140584 
L 185.907236 233.069092 
L 186.630298 236.050582 
L 187.353359 233.805911 
L 188.07642 234.040727 
L 188.799482 235.926801 
L 190.245604 231.384792 
L 190.968666 234.955334 
L 191.691727 225.82905 
L 192.414788 236.881998 
L 193.13785 235.503461 
L 193.860911 224.460577 
L 194.583972 230.26992 
L 195.307034 224.45957 
L 196.030095 225.76045 
L 196.753157 225.360928 
L 197.476218 213.028569 
L 198.199279 219.196509 
L 198.922341 210.724355 
L 199.645402 207.150961 
L 200.368463 209.161991 
L 201.091525 213.564787 
L 201.814586 213.072177 
L 202.537647 217.833739 
L 203.260709 218.709434 
L 203.98377 211.110962 
L 204.706831 228.176872 
L 205.429893 222.471351 
L 206.876015 214.328778 
L 207.599077 212.921895 
L 208.322138 209.591536 
L 209.045199 206.843688 
L 209.768261 209.759597 
L 210.491322 203.873771 
L 211.214383 202.787916 
L 211.937445 204.977909 
L 212.660506 208.411922 
L 213.383568 201.769654 
L 214.106629 202.938533 
L 214.82969 208.447648 
L 215.552752 205.161065 
L 216.275813 199.013419 
L 216.998874 211.26745 
L 217.721936 205.838844 
L 218.444997 198.782461 
L 219.168058 201.178421 
L 219.89112 204.239245 
L 220.614181 202.463534 
L 221.337242 203.717954 
L 222.060304 199.687341 
L 222.783365 203.936333 
L 223.506426 200.595742 
L 224.229488 205.330971 
L 224.952549 201.92329 
L 225.67561 195.935319 
L 226.398672 197.981068 
L 227.121733 201.936205 
L 227.844794 196.11445 
L 228.567856 192.857387 
L 229.290917 193.575588 
L 230.013979 196.093988 
L 230.73704 179.130558 
L 231.460101 187.845076 
L 232.183163 188.727145 
L 232.906224 186.81088 
L 233.629285 189.724441 
L 234.352347 183.989568 
L 235.075408 190.926866 
L 235.798469 188.675821 
L 236.521531 197.17783 
L 237.244592 185.725192 
L 237.967653 193.232254 
L 238.690715 182.920317 
L 239.413776 182.458401 
L 240.136837 178.258049 
L 240.859899 176.414745 
L 241.58296 191.863445 
L 242.306021 177.546054 
L 243.029083 171.14095 
L 243.752144 184.300699 
L 244.475206 184.899144 
L 245.198267 183.407728 
L 245.921328 180.42976 
L 247.367451 169.264268 
L 248.090512 174.445982 
L 248.813574 172.395369 
L 249.536635 173.593098 
L 250.259696 175.627441 
L 250.982758 165.939779 
L 251.705819 164.685695 
L 252.42888 172.202485 
L 253.151942 163.024205 
L 253.875003 169.939196 
L 254.598064 175.670379 
L 255.321126 168.820298 
L 256.044187 164.763184 
L 256.767248 165.879901 
L 257.49031 168.317793 
L 258.213371 163.873232 
L 258.936432 156.914969 
L 259.659494 164.958417 
L 260.382555 149.313645 
L 261.105617 156.438628 
L 261.828678 160.699193 
L 262.551739 156.927716 
L 263.274801 160.619356 
L 263.997862 163.727311 
L 264.720923 159.353531 
L 265.443985 161.422762 
L 266.167046 160.696007 
L 266.890107 151.749021 
L 267.613169 158.457877 
L 268.33623 153.914023 
L 269.059291 156.024514 
L 269.782353 152.939034 
L 270.505414 144.517365 
L 271.228475 140.459412 
L 271.951537 139.142095 
L 272.674598 139.412133 
L 273.397659 146.062956 
L 274.120721 136.896921 
L 274.843782 135.326338 
L 275.566843 136.176036 
L 276.289905 144.225858 
L 277.012966 138.940154 
L 277.736028 140.489603 
L 278.459089 133.529997 
L 279.18215 143.718488 
L 279.905212 139.632693 
L 280.628273 139.798405 
L 281.351334 137.848092 
L 282.074396 136.494212 
L 282.797457 149.913768 
L 283.520518 136.565495 
L 284.24358 139.003889 
L 284.966641 138.791717 
L 285.689702 135.299502 
L 286.412764 129.059272 
L 287.135825 134.089698 
L 287.858886 127.758392 
L 288.581948 130.605702 
L 289.305009 131.036421 
L 290.02807 126.222865 
L 290.751132 134.335416 
L 291.474193 130.40527 
L 292.197255 135.225367 
L 292.920316 122.068302 
L 293.643377 134.674557 
L 294.366439 131.446846 
L 295.0895 121.330142 
L 295.812561 126.365599 
L 296.535623 124.869319 
L 297.258684 134.662145 
L 297.981745 123.462437 
L 298.704807 123.488602 
L 299.427868 128.905971 
L 300.150929 129.576202 
L 300.873991 126.550433 
L 301.597052 119.966868 
L 302.320113 124.967103 
L 303.043175 122.453735 
L 303.766236 124.843657 
L 304.489297 125.376689 
L 305.212359 117.92699 
L 305.93542 122.274604 
L 306.658481 127.448939 
L 307.381543 115.52734 
L 308.104604 118.557973 
L 308.827666 114.544803 
L 309.550727 120.004439 
L 310.273788 116.813795 
L 310.99685 119.635442 
L 311.719911 113.879604 
L 312.442972 119.343768 
L 313.166034 123.598295 
L 313.889095 114.516122 
L 315.335218 109.552619 
L 316.058279 116.045947 
L 316.78134 111.825636 
L 317.504402 127.36843 
L 318.227463 115.357266 
L 318.950524 119.510822 
L 319.673586 128.317254 
L 320.396647 114.903568 
L 321.119708 123.502356 
L 321.84277 114.792031 
L 322.565831 120.620495 
L 323.288892 104.34474 
L 324.011954 109.162825 
L 324.735015 107.700258 
L 325.458077 102.440048 
L 326.181138 101.693334 
L 326.904199 102.154914 
L 327.627261 101.320647 
L 328.350322 96.854451 
L 329.073383 100.825186 
L 329.796445 93.678902 
L 330.519506 103.052079 
L 331.242567 102.422437 
L 331.965629 100.318319 
L 332.68869 98.870177 
L 333.411751 103.031281 
L 334.134813 112.221301 
L 334.857874 90.566083 
L 335.580935 107.817666 
L 336.303997 97.035594 
L 337.027058 105.139927 
L 337.750119 98.882253 
L 338.473181 98.774238 
L 339.196242 101.727046 
L 339.919304 100.179443 
L 340.642365 100.851351 
L 341.365426 98.270222 
L 342.088488 96.630537 
L 342.811549 86.885177 
L 343.53461 105.721934 
L 344.257672 106.251947 
L 344.980733 92.098592 
L 345.703794 98.107696 
L 346.426856 97.073836 
L 347.149917 94.230719 
L 347.872978 103.437344 
L 348.59604 96.778974 
L 350.042162 112.86956 
L 350.765224 97.387147 
L 351.488285 96.259863 
L 352.211346 98.811808 
L 352.934408 91.989067 
L 353.657469 88.387831 
L 354.38053 112.818907 
L 355.103592 89.147963 
L 355.826653 81.941298 
L 356.549715 85.927464 
L 357.995837 99.198583 
L 358.718899 83.673736 
L 359.44196 82.927189 
L 360.165021 88.278474 
L 360.888083 96.910806 
L 361.611144 90.214362 
L 362.334205 105.353777 
L 363.057267 99.987229 
L 364.503389 103.604231 
L 365.226451 88.715399 
L 365.949512 91.030851 
L 366.672573 77.595361 
L 368.118696 101.482167 
L 368.841757 88.521173 
L 369.564819 89.58992 
L 370.28788 89.670093 
L 371.010941 84.612831 
L 371.734003 87.929269 
L 373.180126 78.844581 
L 373.903187 87.236395 
L 374.626248 93.738277 
L 375.34931 82.837959 
L 376.072371 99.865292 
L 376.795432 81.983565 
L 377.518494 87.473056 
L 378.241555 81.9257 
L 378.964616 92.709784 
L 379.687678 94.456478 
L 380.410739 83.466091 
L 381.1338 81.290523 
L 381.856862 76.97226 
L 382.579923 77.569531 
L 383.302984 69.106937 
L 384.026046 56.734491 
L 384.749107 57.365643 
L 385.472168 65.668227 
L 386.19523 53.568 
L 386.918291 61.252348 
L 387.641353 61.910838 
L 388.364414 60.738436 
L 389.087475 68.589 
L 389.810537 61.933649 
L 390.533598 63.035606 
L 391.256659 81.937944 
L 391.979721 77.134451 
L 392.702782 74.443461 
L 393.425843 87.823937 
L 394.148905 77.216468 
L 394.871966 81.88293 
L 395.595027 68.917071 
L 397.04115 93.903487 
L 397.764211 74.639868 
L 398.487273 78.751493 
L 398.487273 78.751493 
" clip-path="url(#p2c849c04a1)" style="fill: none; stroke: #ff0000; stroke-width: 1.5; stroke-linecap: square"/>
   </g>
   <g id="patch_3">
    <path d="M 57.6 307.584 
L 57.6 41.472 
" style="fill: none; stroke: #000000; stroke-width: 0.8; stroke-linejoin: miter; stroke-linecap: square"/>
   </g>
   <g id="patch_4">
    <path d="M 414.72 307.584 
L 414.72 41.472 
" style="fill: none; stroke: #000000; stroke-width: 0.8; stroke-linejoin: miter; stroke-linecap: square"/>
   </g>
   <g id="patch_5">
    <path d="M 57.6 307.584 
L 414.72 307.584 
" style="fill: none; stroke: #000000; stroke-width: 0.8; stroke-linejoin: miter; stroke-linecap: square"/>
   </g>
   <g id="patch_6">
    <path d="M 57.6 41.472 
L 414.72 41.472 
" style="fill: none; stroke: #000000; stroke-width: 0.8; stroke-linejoin: miter; stroke-linecap: square"/>
   </g>
   <g id="legend_1">
    <g id="patch_7">
     <path d="M 64.6 64.150125 
L 116.290625 64.150125 
Q 118.290625 64.150125 118.290625 62.150125 
L 118.290625 48.472 
Q 118.290625 46.472 116.290625 46.472 
L 64.6 46.472 
Q 62.6 46.472 62.6 48.472 
L 62.6 62.150125 
Q 62.6 64.150125 64.6 64.150125 
z
" style="fill: #ffffff; opacity: 0.8; stroke: #cccccc; stroke-linejoin: miter"/>
    </g>
    <g id="line2d_12">
     <path d="M 66.6 54.570438 
L 76.6 54.570438 
L 86.6 54.570438 
" style="fill: none; stroke: #ff0000; stroke-width: 1.5; stroke-linecap: square"/>
    </g>
    <g id="text_13">
     <!-- Test -->
     <g transform="translate(94.6 58.070438) scale(0.1 -0.1)">
      <defs>
       <path id="DejaVuSans-54" d="M -19 4666 
L 3928 4666 
L 3928 4134 
L 2272 4134 
L 2272 0 
L 1638 0 
L 1638 4134 
L -19 4134 
L -19 4666 
z
" transform="scale(0.015625)"/>
      </defs>
      <use xlink:href="#DejaVuSans-54"/>
      <use xlink:href="#DejaVuSans-65" x="44.083984"/>
      <use xlink:href="#DejaVuSans-73" x="105.607422"/>
      <use xlink:href="#DejaVuSans-74" x="157.707031"/>
     </g>
    </g>
   </g>
  </g>
 </g>
 <defs>
  <clipPath id="p2c849c04a1">
   <rect x="57.6" y="41.472" width="357.12" height="266.112"/>
  </clipPath>
 </defs>
</svg>
