<?xml version="1.0" encoding="utf-8" standalone="no"?>
<!DOCTYPE svg PUBLIC "-//W3C//DTD SVG 1.1//EN"
  "http://www.w3.org/Graphics/SVG/1.1/DTD/svg11.dtd">
<svg xmlns:xlink="http://www.w3.org/1999/xlink" width="460.8pt" height="345.6pt" viewBox="0 0 460.8 345.6" xmlns="http://www.w3.org/2000/svg" version="1.1">
 <metadata>
  <rdf:RDF xmlns:dc="http://purl.org/dc/elements/1.1/" xmlns:cc="http://creativecommons.org/ns#" xmlns:rdf="http://www.w3.org/1999/02/22-rdf-syntax-ns#">
   <cc:Work>
    <dc:type rdf:resource="http://purl.org/dc/dcmitype/StillImage"/>
    <dc:date>2026-04-05T17:55:42.403401</dc:date>
    <dc:format>image/svg+xml</dc:format>
    <dc:creator>
     <cc:Agent>
      <dc:title>Matplotlib v3.9.4, https://matplotlib.org/</dc:title>
     </cc:Agent>
    </dc:creator>
   </cc:Work>
  </rdf:RDF>
 </metadata>
 <defs>
  <style type="text/css">*{stroke-linejoin: round; stroke-linecap: butt}</style>
 </defs>
 <g id="figure_1">
  <g id="patch_1">
   <path d="M 0 345.6 
L 460.8 345.6 
L 460.8 0 
L 0 0 
z
" style="fill: #ffffff"/>
  </g>
  <g id="axes_1">
   <g id="patch_2">
    <path d="M 57.6 307.584 
L 414.72 307.584 
L 414.72 41.472 
L 57.6 41.472 
z
" style="fill: #ffffff"/>
   </g>
   <g id="matplotlib.axis_1">
    <g id="xtick_1">
     <g id="line2d_1">
      <defs>
       <path id="m91bac5cfd8" d="M 0 0 
L 0 3.5 
" style="stroke: #000000; stroke-width: 0.8"/>
      </defs>
      <g>
       <use xlink:href="#m91bac5cfd8" x="73.832727" y="307.584" style="stroke: #000000; stroke-width: 0.8"/>
      </g>
     </g>
     <g id="text_1">
      <!-- 0 -->
      <g transform="translate(70.651477 322.182437) scale(0.1 -0.1)">
       <defs>
        <path id="DejaVuSans-30" d="M 2034 4250 
Q 1547 4250 1301 3770 
Q 1056 3291 1056 2328 
Q 1056 1369 1301 889 
Q 1547 409 2034 409 
Q 2525 409 2770 889 
Q 3016 1369 3016 2328 
Q 3016 3291 2770 3770 
Q 2525 4250 2034 4250 
z
M 2034 4750 
Q 2819 4750 3233 4129 
Q 3647 3509 3647 2328 
Q 3647 1150 3233 529 
Q 2819 -91 2034 -91 
Q 1250 -91 836 529 
Q 422 1150 422 2328 
Q 422 3509 836 4129 
Q 1250 4750 2034 4750 
z
" transform="scale(0.015625)"/>
       </defs>
       <use xlink:href="#DejaVuSans-30"/>
      </g>
     </g>
    </g>
    <g id="xtick_2">
     <g id="line2d_2">
      <g>
       <use xlink:href="#m91bac5cfd8" x="146.138862" y="307.584" style="stroke: #000000; stroke-width: 0.8"/>
      </g>
     </g>
     <g id="text_2">
      <!-- 100 -->
      <g transform="translate(136.595112 322.182437) scale(0.1 -0.1)">
       <defs>
        <path id="DejaVuSans-31" d="M 794 531 
L 1825 531 
L 1825 4091 
L 703 3866 
L 703 4441 
L 1819 4666 
L 2450 4666 
L 2450 531 
L 3481 531 
L 3481 0 
L 794 0 
L 794 531 
z
" transform="scale(0.015625)"/>
       </defs>
       <use xlink:href="#DejaVuSans-31"/>
       <use xlink:href="#DejaVuSans-30" x="63.623047"/>
       <use xlink:href="#DejaVuSans-30" x="127.246094"/>
      </g>
     </g>
    </g>
    <g id="xtick_3">
     <g id="line2d_3">
      <g>
       <use xlink:href="#m91bac5cfd8" x="218.444997" y="307.584" style="stroke: #000000; stroke-width: 0.8"/>
      </g>
     </g>
     <g id="text_3">
      <!-- 200 -->
      <g transform="translate(208.901247 322.182437) scale(0.1 -0.1)">
       <defs>
        <path id="DejaVuSans-32" d="M 1228 531 
L 3431 531 
L 3431 0 
L 469 0 
L 469 531 
Q 828 903 1448 1529 
Q 2069 2156 2228 2338 
Q 2531 2678 2651 2914 
Q 2772 3150 2772 3378 
Q 2772 3750 2511 3984 
Q 2250 4219 1831 4219 
Q 1534 4219 1204 4116 
Q 875 4013 500 3803 
L 500 4441 
Q 881 4594 1212 4672 
Q 1544 4750 1819 4750 
Q 2544 4750 2975 4387 
Q 3406 4025 3406 3419 
Q 3406 3131 3298 2873 
Q 3191 2616 2906 2266 
Q 2828 2175 2409 1742 
Q 1991 1309 1228 531 
z
" transform="scale(0.015625)"/>
       </defs>
       <use xlink:href="#DejaVuSans-32"/>
       <use xlink:href="#DejaVuSans-30" x="63.623047"/>
       <use xlink:href="#DejaVuSans-30" x="127.246094"/>
      </g>
     </g>
    </g>
    <g id="xtick_4">
     <g id="line2d_4">
      <g>
       <use xlink:href="#m91bac5cfd8" x="290.751132" y="307.584" style="stroke: #000000; stroke-width: 0.8"/>
      </g>
     </g>
     <g id="text_4">
      <!-- 300 -->
      <g transform="translate(281.207382 322.182437) scale(0.1 -0.1)">
       <defs>
        <path id="DejaVuSans-33" d="M 2597 2516 
Q 3050 2419 3304 2112 
Q 3559 1806 3559 1356 
Q 3559 666 3084 287 
Q 2609 -91 1734 -91 
Q 1441 -91 1130 -33 
Q 819 25 488 141 
L 488 750 
Q 750 597 1062 519 
Q 1375 441 1716 441 
Q 2309 441 2620 675 
Q 2931 909 2931 1356 
Q 2931 1769 2642 2001 
Q 2353 2234 1838 2234 
L 1294 2234 
L 1294 2753 
L 1863 2753 
Q 2328 2753 2575 2939 
Q 2822 3125 2822 3475 
Q 2822 3834 2567 4026 
Q 2313 4219 1838 4219 
Q 1578 4219 1281 4162 
Q 984 4106 628 3988 
L 628 4550 
Q 988 4650 1302 4700 
Q 1616 4750 1894 4750 
Q 2613 4750 3031 4423 
Q 3450 4097 3450 3541 
Q 3450 3153 3228 2886 
Q 3006 2619 2597 2516 
z
" transform="scale(0.015625)"/>
       </defs>
       <use xlink:href="#DejaVuSans-33"/>
       <use xlink:href="#DejaVuSans-30" x="63.623047"/>
       <use xlink:href="#DejaVuSans-30" x="127.246094"/>
      </g>
     </g>
    </g>
    <g id="xtick_5">
     <g id="line2d_5">
      <g>
       <use xlink:href="#m91bac5cfd8" x="363.057267" y="307.584" style="stroke: #000000; stroke-width: 0.8"/>
      </g>
     </g>
     <g id="text_5">
      <!-- 400 -->
      <g transform="translate(353.513517 322.182437) scale(0.1 -0.1)">
       <defs>
        <path id="DejaVuSans-34" d="M 2419 4116 
L 825 1625 
L 2419 1625 
L 2419 4116 
z
M 2253 4666 
L 3047 4666 
L 3047 1625 
L 3713 1625 
L 3713 1100 
L 3047 1100 
L 3047 0 
L 2419 0 
L 2419 1100 
L 313 1100 
L 313 1709 
L 2253 4666 
z
" transform="scale(0.015625)"/>
       </defs>
       <use xlink:href="#DejaVuSans-34"/>
       <use xlink:href="#DejaVuSans-30" x="63.623047"/>
       <use xlink:href="#DejaVuSans-30" x="127.246094"/>
      </g>
     </g>
    </g>
    <g id="text_6">
     <!-- Epochs -->
     <g transform="translate(218.244375 335.860562) scale(0.1 -0.1)">
      <defs>
       <path id="DejaVuSans-45" d="M 628 4666 
L 3578 4666 
L 3578 4134 
L 1259 4134 
L 1259 2753 
L 3481 2753 
L 3481 2222 
L 1259 2222 
L 1259 531 
L 3634 531 
L 3634 0 
L 628 0 
L 628 4666 
z
" transform="scale(0.015625)"/>
       <path id="DejaVuSans-70" d="M 1159 525 
L 1159 -1331 
L 581 -1331 
L 581 3500 
L 1159 3500 
L 1159 2969 
Q 1341 3281 1617 3432 
Q 1894 3584 2278 3584 
Q 2916 3584 3314 3078 
Q 3713 2572 3713 1747 
Q 3713 922 3314 415 
Q 2916 -91 2278 -91 
Q 1894 -91 1617 61 
Q 1341 213 1159 525 
z
M 3116 1747 
Q 3116 2381 2855 2742 
Q 2594 3103 2138 3103 
Q 1681 3103 1420 2742 
Q 1159 2381 1159 1747 
Q 1159 1113 1420 752 
Q 1681 391 2138 391 
Q 2594 391 2855 752 
Q 3116 1113 3116 1747 
z
" transform="scale(0.015625)"/>
       <path id="DejaVuSans-6f" d="M 1959 3097 
Q 1497 3097 1228 2736 
Q 959 2375 959 1747 
Q 959 1119 1226 758 
Q 1494 397 1959 397 
Q 2419 397 2687 759 
Q 2956 1122 2956 1747 
Q 2956 2369 2687 2733 
Q 2419 3097 1959 3097 
z
M 1959 3584 
Q 2709 3584 3137 3096 
Q 3566 2609 3566 1747 
Q 3566 888 3137 398 
Q 2709 -91 1959 -91 
Q 1206 -91 779 398 
Q 353 888 353 1747 
Q 353 2609 779 3096 
Q 1206 3584 1959 3584 
z
" transform="scale(0.015625)"/>
       <path id="DejaVuSans-63" d="M 3122 3366 
L 3122 2828 
Q 2878 2963 2633 3030 
Q 2388 3097 2138 3097 
Q 1578 3097 1268 2742 
Q 959 2388 959 1747 
Q 959 1106 1268 751 
Q 1578 397 2138 397 
Q 2388 397 2633 464 
Q 2878 531 3122 666 
L 3122 134 
Q 2881 22 2623 -34 
Q 2366 -91 2075 -91 
Q 1284 -91 818 406 
Q 353 903 353 1747 
Q 353 2603 823 3093 
Q 1294 3584 2113 3584 
Q 2378 3584 2631 3529 
Q 2884 3475 3122 3366 
z
" transform="scale(0.015625)"/>
       <path id="DejaVuSans-68" d="M 3513 2113 
L 3513 0 
L 2938 0 
L 2938 2094 
Q 2938 2591 2744 2837 
Q 2550 3084 2163 3084 
Q 1697 3084 1428 2787 
Q 1159 2491 1159 1978 
L 1159 0 
L 581 0 
L 581 4863 
L 1159 4863 
L 1159 2956 
Q 1366 3272 1645 3428 
Q 1925 3584 2291 3584 
Q 2894 3584 3203 3211 
Q 3513 2838 3513 2113 
z
" transform="scale(0.015625)"/>
       <path id="DejaVuSans-73" d="M 2834 3397 
L 2834 2853 
Q 2591 2978 2328 3040 
Q 2066 3103 1784 3103 
Q 1356 3103 1142 2972 
Q 928 2841 928 2578 
Q 928 2378 1081 2264 
Q 1234 2150 1697 2047 
L 1894 2003 
Q 2506 1872 2764 1633 
Q 3022 1394 3022 966 
Q 3022 478 2636 193 
Q 2250 -91 1575 -91 
Q 1294 -91 989 -36 
Q 684 19 347 128 
L 347 722 
Q 666 556 975 473 
Q 1284 391 1588 391 
Q 1994 391 2212 530 
Q 2431 669 2431 922 
Q 2431 1156 2273 1281 
Q 2116 1406 1581 1522 
L 1381 1569 
Q 847 1681 609 1914 
Q 372 2147 372 2553 
Q 372 3047 722 3315 
Q 1072 3584 1716 3584 
Q 2034 3584 2315 3537 
Q 2597 3491 2834 3397 
z
" transform="scale(0.015625)"/>
      </defs>
      <use xlink:href="#DejaVuSans-45"/>
      <use xlink:href="#DejaVuSans-70" x="63.183594"/>
      <use xlink:href="#DejaVuSans-6f" x="126.660156"/>
      <use xlink:href="#DejaVuSans-63" x="187.841797"/>
      <use xlink:href="#DejaVuSans-68" x="242.822266"/>
      <use xlink:href="#DejaVuSans-73" x="306.201172"/>
     </g>
    </g>
   </g>
   <g id="matplotlib.axis_2">
    <g id="ytick_1">
     <g id="line2d_6">
      <defs>
       <path id="ma5794233c2" d="M 0 0 
L -3.5 0 
" style="stroke: #000000; stroke-width: 0.8"/>
      </defs>
      <g>
       <use xlink:href="#ma5794233c2" x="57.6" y="280.894885" style="stroke: #000000; stroke-width: 0.8"/>
      </g>
     </g>
     <g id="text_7">
      <!-- 0.22 -->
      <g transform="translate(28.334375 284.694104) scale(0.1 -0.1)">
       <defs>
        <path id="DejaVuSans-2e" d="M 684 794 
L 1344 794 
L 1344 0 
L 684 0 
L 684 794 
z
" transform="scale(0.015625)"/>
       </defs>
       <use xlink:href="#DejaVuSans-30"/>
       <use xlink:href="#DejaVuSans-2e" x="63.623047"/>
       <use xlink:href="#DejaVuSans-32" x="95.410156"/>
       <use xlink:href="#DejaVuSans-32" x="159.033203"/>
      </g>
     </g>
    </g>
    <g id="ytick_2">
     <g id="line2d_7">
      <g>
       <use xlink:href="#ma5794233c2" x="57.6" y="249.573252" style="stroke: #000000; stroke-width: 0.8"/>
      </g>
     </g>
     <g id="text_8">
      <!-- 0.24 -->
      <g transform="translate(28.334375 253.372471) scale(0.1 -0.1)">
       <use xlink:href="#DejaVuSans-30"/>
       <use xlink:href="#DejaVuSans-2e" x="63.623047"/>
       <use xlink:href="#DejaVuSans-32" x="95.410156"/>
       <use xlink:href="#DejaVuSans-34" x="159.033203"/>
      </g>
     </g>
    </g>
    <g id="ytick_3">
     <g id="line2d_8">
      <g>
       <use xlink:href="#ma5794233c2" x="57.6" y="218.25162" style="stroke: #000000; stroke-width: 0.8"/>
      </g>
     </g>
     <g id="text_9">
      <!-- 0.26 -->
      <g transform="translate(28.334375 222.050838) scale(0.1 -0.1)">
       <defs>
        <path id="DejaVuSans-36" d="M 2113 2584 
Q 1688 2584 1439 2293 
Q 1191 2003 1191 1497 
Q 1191 994 1439 701 
Q 1688 409 2113 409 
Q 2538 409 2786 701 
Q 3034 994 3034 1497 
Q 3034 2003 2786 2293 
Q 2538 2584 2113 2584 
z
M 3366 4563 
L 3366 3988 
Q 3128 4100 2886 4159 
Q 2644 4219 2406 4219 
Q 1781 4219 1451 3797 
Q 1122 3375 1075 2522 
Q 1259 2794 1537 2939 
Q 1816 3084 2150 3084 
Q 2853 3084 3261 2657 
Q 3669 2231 3669 1497 
Q 3669 778 3244 343 
Q 2819 -91 2113 -91 
Q 1303 -91 875 529 
Q 447 1150 447 2328 
Q 447 3434 972 4092 
Q 1497 4750 2381 4750 
Q 2619 4750 2861 4703 
Q 3103 4656 3366 4563 
z
" transform="scale(0.015625)"/>
       </defs>
       <use xlink:href="#DejaVuSans-30"/>
       <use xlink:href="#DejaVuSans-2e" x="63.623047"/>
       <use xlink:href="#DejaVuSans-32" x="95.410156"/>
       <use xlink:href="#DejaVuSans-36" x="159.033203"/>
      </g>
     </g>
    </g>
    <g id="ytick_4">
     <g id="line2d_9">
      <g>
       <use xlink:href="#ma5794233c2" x="57.6" y="186.929987" style="stroke: #000000; stroke-width: 0.8"/>
      </g>
     </g>
     <g id="text_10">
      <!-- 0.28 -->
      <g transform="translate(28.334375 190.729206) scale(0.1 -0.1)">
       <defs>
        <path id="DejaVuSans-38" d="M 2034 2216 
Q 1584 2216 1326 1975 
Q 1069 1734 1069 1313 
Q 1069 891 1326 650 
Q 1584 409 2034 409 
Q 2484 409 2743 651 
Q 3003 894 3003 1313 
Q 3003 1734 2745 1975 
Q 2488 2216 2034 2216 
z
M 1403 2484 
Q 997 2584 770 2862 
Q 544 3141 544 3541 
Q 544 4100 942 4425 
Q 1341 4750 2034 4750 
Q 2731 4750 3128 4425 
Q 3525 4100 3525 3541 
Q 3525 3141 3298 2862 
Q 3072 2584 2669 2484 
Q 3125 2378 3379 2068 
Q 3634 1759 3634 1313 
Q 3634 634 3220 271 
Q 2806 -91 2034 -91 
Q 1263 -91 848 271 
Q 434 634 434 1313 
Q 434 1759 690 2068 
Q 947 2378 1403 2484 
z
M 1172 3481 
Q 1172 3119 1398 2916 
Q 1625 2713 2034 2713 
Q 2441 2713 2670 2916 
Q 2900 3119 2900 3481 
Q 2900 3844 2670 4047 
Q 2441 4250 2034 4250 
Q 1625 4250 1398 4047 
Q 1172 3844 1172 3481 
z
" transform="scale(0.015625)"/>
       </defs>
       <use xlink:href="#DejaVuSans-30"/>
       <use xlink:href="#DejaVuSans-2e" x="63.623047"/>
       <use xlink:href="#DejaVuSans-32" x="95.410156"/>
       <use xlink:href="#DejaVuSans-38" x="159.033203"/>
      </g>
     </g>
    </g>
    <g id="ytick_5">
     <g id="line2d_10">
      <g>
       <use xlink:href="#ma5794233c2" x="57.6" y="155.608354" style="stroke: #000000; stroke-width: 0.8"/>
      </g>
     </g>
     <g id="text_11">
      <!-- 0.30 -->
      <g transform="translate(28.334375 159.407573) scale(0.1 -0.1)">
       <use xlink:href="#DejaVuSans-30"/>
       <use xlink:href="#DejaVuSans-2e" x="63.623047"/>
       <use xlink:href="#DejaVuSans-33" x="95.410156"/>
       <use xlink:href="#DejaVuSans-30" x="159.033203"/>
      </g>
     </g>
    </g>
    <g id="ytick_6">
     <g id="line2d_11">
      <g>
       <use xlink:href="#ma5794233c2" x="57.6" y="124.286721" style="stroke: #000000; stroke-width: 0.8"/>
      </g>
     </g>
     <g id="text_12">
      <!-- 0.32 -->
      <g transform="translate(28.334375 128.08594) scale(0.1 -0.1)">
       <use xlink:href="#DejaVuSans-30"/>
       <use xlink:href="#DejaVuSans-2e" x="63.623047"/>
       <use xlink:href="#DejaVuSans-33" x="95.410156"/>
       <use xlink:href="#DejaVuSans-32" x="159.033203"/>
      </g>
     </g>
    </g>
    <g id="ytick_7">
     <g id="line2d_12">
      <g>
       <use xlink:href="#ma5794233c2" x="57.6" y="92.965088" style="stroke: #000000; stroke-width: 0.8"/>
      </g>
     </g>
     <g id="text_13">
      <!-- 0.34 -->
      <g transform="translate(28.334375 96.764307) scale(0.1 -0.1)">
       <use xlink:href="#DejaVuSans-30"/>
       <use xlink:href="#DejaVuSans-2e" x="63.623047"/>
       <use xlink:href="#DejaVuSans-33" x="95.410156"/>
       <use xlink:href="#DejaVuSans-34" x="159.033203"/>
      </g>
     </g>
    </g>
    <g id="ytick_8">
     <g id="line2d_13">
      <g>
       <use xlink:href="#ma5794233c2" x="57.6" y="61.643456" style="stroke: #000000; stroke-width: 0.8"/>
      </g>
     </g>
     <g id="text_14">
      <!-- 0.36 -->
      <g transform="translate(28.334375 65.442674) scale(0.1 -0.1)">
       <use xlink:href="#DejaVuSans-30"/>
       <use xlink:href="#DejaVuSans-2e" x="63.623047"/>
       <use xlink:href="#DejaVuSans-33" x="95.410156"/>
       <use xlink:href="#DejaVuSans-36" x="159.033203"/>
      </g>
     </g>
    </g>
    <g id="text_15">
     <!-- Loss -->
     <g transform="translate(22.254688 185.495187) rotate(-90) scale(0.1 -0.1)">
      <defs>
       <path id="DejaVuSans-4c" d="M 628 4666 
L 1259 4666 
L 1259 531 
L 3531 531 
L 3531 0 
L 628 0 
L 628 4666 
z
" transform="scale(0.015625)"/>
      </defs>
      <use xlink:href="#DejaVuSans-4c"/>
      <use xlink:href="#DejaVuSans-6f" x="53.962891"/>
      <use xlink:href="#DejaVuSans-73" x="115.144531"/>
      <use xlink:href="#DejaVuSans-73" x="167.244141"/>
     </g>
    </g>
   </g>
   <g id="line2d_14">
    <path d="M 73.832727 53.568 
L 74.555789 59.425912 
L 76.001911 65.665795 
L 76.724973 67.670628 
L 77.448034 69.108946 
L 78.171095 71.558711 
L 79.617218 74.626752 
L 80.340279 74.488554 
L 81.063341 76.173444 
L 81.786402 76.356495 
L 82.509463 76.409422 
L 83.955586 78.80178 
L 85.401709 80.293539 
L 86.12477 81.193952 
L 87.570893 83.345478 
L 88.293954 83.982796 
L 89.017016 82.763607 
L 90.463138 87.40107 
L 91.1862 87.952557 
L 91.909261 88.725226 
L 92.632322 89.307937 
L 93.355384 91.066384 
L 94.078445 91.210743 
L 94.801506 92.431285 
L 95.524568 92.686259 
L 96.247629 93.409129 
L 97.693752 95.488545 
L 98.416813 95.635051 
L 99.139874 96.453833 
L 99.862936 97.911754 
L 100.585997 97.918661 
L 101.309059 98.68727 
L 102.755181 102.287195 
L 103.478243 101.249844 
L 104.201304 103.472313 
L 104.924365 103.407531 
L 106.370488 106.198008 
L 107.093549 107.076158 
L 107.816611 108.512516 
L 108.539672 108.912036 
L 109.262733 109.626831 
L 110.708856 112.023483 
L 112.154979 114.326135 
L 112.87804 115.589897 
L 113.601101 117.147837 
L 114.324163 117.563786 
L 116.493347 120.373259 
L 117.216408 120.774459 
L 117.93947 121.915704 
L 118.662531 122.602962 
L 119.385592 123.868124 
L 120.108654 125.930504 
L 120.831715 126.260061 
L 121.554776 127.917322 
L 122.277838 127.902526 
L 123.000899 129.415427 
L 123.72396 129.750772 
L 124.447022 131.134529 
L 125.170083 131.696377 
L 125.893144 133.590362 
L 126.616206 133.572533 
L 127.339267 136.109671 
L 128.062328 136.647529 
L 128.78539 137.880346 
L 129.508451 137.08154 
L 130.231512 139.543767 
L 130.954574 139.102475 
L 131.677635 141.775337 
L 132.400696 142.178544 
L 133.846819 144.563434 
L 134.569881 144.235184 
L 135.292942 144.683383 
L 136.016003 146.829262 
L 136.739065 147.010913 
L 138.185187 150.69891 
L 138.908249 152.306603 
L 139.63131 152.649742 
L 141.077433 153.741607 
L 141.800494 156.216296 
L 142.523555 156.118937 
L 143.246617 154.179912 
L 143.969678 156.945793 
L 145.415801 157.883124 
L 146.861923 160.804006 
L 147.584985 161.411407 
L 148.308046 162.71484 
L 149.754169 164.410139 
L 150.47723 166.197103 
L 151.200292 159.623742 
L 151.923353 167.275853 
L 152.646414 163.43911 
L 153.369476 162.253059 
L 154.092537 164.233062 
L 154.815598 167.215505 
L 155.53866 169.622705 
L 156.984782 172.866749 
L 157.707844 171.848067 
L 158.430905 174.975523 
L 159.153966 173.607961 
L 159.877028 177.249472 
L 160.600089 177.162567 
L 161.32315 178.029469 
L 162.046212 177.901585 
L 162.769273 179.958085 
L 164.938457 182.421339 
L 165.661519 182.880413 
L 166.38458 183.166331 
L 167.830703 185.299235 
L 168.553764 185.700948 
L 169.276825 186.788006 
L 169.999887 186.945294 
L 172.892132 189.44878 
L 173.615193 190.369309 
L 174.338255 190.43003 
L 175.784377 193.015754 
L 176.507439 192.913214 
L 177.2305 194.128995 
L 178.676623 194.922154 
L 179.399684 196.301291 
L 180.122745 196.95065 
L 180.845807 196.780481 
L 181.568868 198.50075 
L 182.29193 199.249196 
L 183.014991 199.711444 
L 184.461114 201.423265 
L 185.184175 201.495141 
L 185.907236 202.060583 
L 186.630298 203.110162 
L 188.07642 204.280858 
L 188.799482 205.408381 
L 189.522543 206.118509 
L 190.245604 206.473456 
L 190.968666 206.549859 
L 191.691727 206.976263 
L 192.414788 208.365527 
L 193.13785 209.158219 
L 193.860911 209.054372 
L 194.583972 210.017654 
L 195.307034 210.737069 
L 196.030095 210.680688 
L 196.753157 210.482095 
L 197.476218 211.026534 
L 198.199279 211.889609 
L 198.922341 211.457185 
L 199.645402 212.962478 
L 200.368463 213.65585 
L 201.091525 213.557371 
L 201.814586 214.714671 
L 202.537647 214.881713 
L 203.260709 216.463224 
L 203.98377 216.570665 
L 204.706831 217.31099 
L 205.429893 218.283979 
L 206.152954 218.259942 
L 206.876015 218.824171 
L 207.599077 219.835058 
L 208.322138 219.929058 
L 209.768261 220.8529 
L 210.491322 221.27949 
L 211.937445 222.889564 
L 212.660506 222.833277 
L 213.383568 224.265527 
L 214.106629 224.125135 
L 214.82969 224.865834 
L 215.552752 225.268621 
L 216.998874 226.765419 
L 217.721936 226.905391 
L 218.444997 227.729308 
L 219.168058 227.598997 
L 219.89112 227.916419 
L 221.337242 229.498116 
L 222.060304 230.037841 
L 222.783365 230.389708 
L 223.506426 230.968778 
L 224.229488 230.939841 
L 224.952549 232.126265 
L 225.67561 232.253449 
L 226.398672 232.878072 
L 227.121733 232.572038 
L 227.844794 233.828425 
L 228.567856 234.449221 
L 229.290917 234.105802 
L 230.013979 234.542893 
L 230.73704 235.611235 
L 231.460101 235.927537 
L 232.183163 236.492116 
L 232.906224 236.310768 
L 233.629285 237.515465 
L 234.352347 237.937388 
L 235.075408 238.172246 
L 235.798469 238.897425 
L 236.521531 238.959173 
L 237.244592 239.625802 
L 237.967653 240.48617 
L 238.690715 240.3893 
L 239.413776 240.746184 
L 240.136837 241.418227 
L 240.859899 241.896997 
L 241.58296 241.738216 
L 242.306021 242.247371 
L 243.029083 242.893743 
L 243.752144 243.255084 
L 244.475206 244.033471 
L 245.921328 243.866522 
L 246.64439 243.232775 
L 247.367451 243.661442 
L 248.090512 241.572224 
L 248.813574 242.017157 
L 249.536635 241.911723 
L 250.259696 242.114656 
L 250.982758 243.530571 
L 251.705819 243.221573 
L 252.42888 243.284488 
L 253.151942 245.350533 
L 253.875003 245.947106 
L 254.598064 244.763902 
L 255.321126 246.383847 
L 256.044187 246.005517 
L 256.767248 247.433146 
L 257.49031 247.430416 
L 258.213371 248.123018 
L 258.936432 248.357899 
L 259.659494 249.081632 
L 261.105617 249.931755 
L 261.828678 250.101201 
L 263.274801 250.966073 
L 263.997862 251.708941 
L 264.720923 252.272283 
L 265.443985 252.214829 
L 266.167046 253.107821 
L 266.890107 253.607757 
L 267.613169 253.413995 
L 268.33623 253.698046 
L 269.059291 254.321082 
L 271.228475 255.671305 
L 271.951537 255.942007 
L 272.674598 256.462807 
L 273.397659 256.753065 
L 274.120721 256.557226 
L 275.566843 257.222151 
L 276.289905 257.912373 
L 277.012966 258.163613 
L 277.736028 259.042486 
L 278.459089 259.155551 
L 279.18215 259.690189 
L 279.905212 259.47512 
L 280.628273 260.115775 
L 281.351334 260.280181 
L 282.797457 261.090492 
L 283.520518 260.893602 
L 284.24358 260.991195 
L 284.966641 262.192858 
L 285.689702 261.929156 
L 286.412764 262.717111 
L 287.135825 262.805813 
L 287.858886 263.212614 
L 288.581948 263.798218 
L 289.305009 263.575589 
L 290.02807 264.287046 
L 290.751132 264.450425 
L 291.474193 262.666681 
L 292.197255 265.735189 
L 292.920316 265.708539 
L 293.643377 266.233072 
L 294.366439 266.136226 
L 295.0895 266.654014 
L 296.535623 266.957341 
L 297.258684 268.092636 
L 297.981745 268.521723 
L 298.704807 268.257437 
L 299.427868 269.034424 
L 300.150929 268.851956 
L 300.873991 269.522646 
L 301.597052 268.749556 
L 303.043175 269.821819 
L 303.766236 270.369525 
L 304.489297 270.123442 
L 305.212359 270.491014 
L 305.93542 271.130853 
L 308.827666 271.896498 
L 309.550727 272.629822 
L 310.273788 272.381732 
L 310.99685 273.125348 
L 311.719911 273.100308 
L 312.442972 272.635563 
L 313.166034 273.665026 
L 313.889095 274.178264 
L 314.612156 274.065619 
L 315.335218 274.557131 
L 317.504402 274.916629 
L 318.227463 275.126004 
L 318.950524 275.82255 
L 319.673586 275.8734 
L 320.396647 275.708925 
L 321.84277 276.820322 
L 322.565831 276.906737 
L 323.288892 276.776753 
L 324.011954 277.363571 
L 324.735015 277.23291 
L 325.458077 277.512271 
L 326.181138 277.649139 
L 326.904199 278.23549 
L 327.627261 278.648195 
L 328.350322 278.573915 
L 329.073383 278.956796 
L 329.796445 278.872785 
L 330.519506 279.635303 
L 331.965629 279.890044 
L 332.68869 279.812707 
L 333.411751 280.437166 
L 334.134813 280.537723 
L 334.857874 280.479382 
L 335.580935 280.722874 
L 336.303997 281.261876 
L 337.027058 281.436502 
L 337.750119 280.756059 
L 338.473181 281.379188 
L 339.196242 282.185205 
L 339.919304 282.036902 
L 340.642365 282.337849 
L 341.365426 282.493526 
L 342.088488 282.387719 
L 342.811549 282.961142 
L 344.980733 283.234948 
L 345.703794 283.665085 
L 346.426856 283.137705 
L 347.149917 284.213258 
L 347.872978 284.267725 
L 348.59604 284.509094 
L 349.319101 284.215452 
L 350.765224 285.130917 
L 351.488285 285.291541 
L 352.211346 284.981564 
L 352.934408 285.239945 
L 353.657469 285.673629 
L 354.38053 285.270235 
L 355.103592 286.116881 
L 357.995837 286.888337 
L 358.718899 286.509843 
L 359.44196 286.771912 
L 360.165021 286.469728 
L 360.888083 287.451889 
L 361.611144 287.967227 
L 362.334205 287.657133 
L 363.057267 288.322734 
L 364.503389 288.122951 
L 365.226451 288.601605 
L 366.672573 288.903018 
L 367.395635 288.904698 
L 368.118696 289.088333 
L 369.564819 289.585562 
L 370.28788 288.933706 
L 371.010941 290.113292 
L 371.734003 289.26492 
L 372.457064 290.005245 
L 373.180126 290.118053 
L 373.903187 290.554048 
L 374.626248 290.283462 
L 375.34931 290.59736 
L 376.072371 290.071403 
L 376.795432 290.756351 
L 377.518494 290.837282 
L 378.241555 290.52378 
L 378.964616 290.959635 
L 379.687678 291.021383 
L 380.410739 291.424707 
L 381.1338 290.89966 
L 381.856862 291.926487 
L 382.579923 291.82369 
L 383.302984 291.569883 
L 384.026046 292.157611 
L 384.749107 292.129257 
L 385.472168 292.39982 
L 386.19523 292.060788 
L 386.918291 292.419959 
L 387.641353 292.966522 
L 389.810537 293.547995 
L 390.533598 293.454136 
L 391.256659 293.695365 
L 391.979721 293.30616 
L 392.702782 294.467708 
L 393.425843 294.472888 
L 394.871966 294.793274 
L 395.595027 294.454289 
L 396.318089 295.239514 
L 397.04115 294.743848 
L 397.764211 293.649649 
L 398.487273 295.488 
L 398.487273 295.488 
" clip-path="url(#p64339e4f3f)" style="fill: none; stroke: #ff0000; stroke-width: 1.5; stroke-linecap: square"/>
   </g>
   <g id="line2d_15">
    <path d="M 73.832727 197.064159 
L 74.555789 196.346377 
L 75.27885 196.836022 
L 76.001911 199.049762 
L 76.724973 197.946042 
L 77.448034 198.098616 
L 78.894157 199.426413 
L 79.617218 198.526373 
L 80.340279 198.355317 
L 81.063341 197.817039 
L 81.786402 196.943416 
L 82.509463 197.814145 
L 83.955586 196.70137 
L 84.678647 196.659411 
L 85.401709 196.293309 
L 86.12477 195.474761 
L 86.847832 196.415966 
L 87.570893 195.970007 
L 88.293954 197.614292 
L 89.017016 196.39809 
L 89.740077 196.142603 
L 90.463138 196.116466 
L 91.1862 195.922167 
L 92.632322 199.696088 
L 93.355384 198.617572 
L 94.078445 198.032107 
L 94.801506 199.349682 
L 95.524568 197.948749 
L 96.247629 198.416878 
L 96.97069 198.014092 
L 97.693752 196.973987 
L 98.416813 196.236835 
L 99.139874 196.39907 
L 99.862936 197.747916 
L 100.585997 198.644689 
L 101.309059 199.088454 
L 102.755181 197.2768 
L 103.478243 199.218205 
L 104.201304 199.531707 
L 104.924365 196.183722 
L 106.370488 199.423612 
L 107.093549 197.87986 
L 107.816611 197.346623 
L 108.539672 195.105252 
L 109.262733 198.558811 
L 109.985795 197.763458 
L 110.708856 198.284981 
L 111.431917 198.268085 
L 112.154979 197.02514 
L 112.87804 196.946076 
L 113.601101 195.324147 
L 114.324163 196.789629 
L 115.047224 194.555445 
L 115.770285 198.28204 
L 116.493347 195.9182 
L 117.93947 195.257685 
L 118.662531 192.731609 
L 119.385592 193.661193 
L 120.108654 194.397364 
L 120.831715 194.596097 
L 121.554776 195.275234 
L 122.277838 193.901745 
L 123.000899 196.599343 
L 123.72396 194.11364 
L 124.447022 196.868879 
L 125.170083 194.176882 
L 125.893144 194.342477 
L 126.616206 195.227955 
L 127.339267 192.189831 
L 128.062328 193.636783 
L 128.78539 192.480369 
L 129.508451 195.126301 
L 130.231512 196.737262 
L 130.954574 193.626282 
L 131.677635 194.144584 
L 132.400696 192.088691 
L 134.569881 196.7711 
L 135.292942 195.555878 
L 136.016003 195.801657 
L 136.739065 195.108799 
L 137.462126 196.607325 
L 138.908249 198.524366 
L 139.63131 197.442256 
L 140.354371 195.19323 
L 141.077433 196.511505 
L 141.800494 193.358053 
L 142.523555 191.575756 
L 143.246617 191.02679 
L 143.969678 189.188905 
L 145.415801 191.745458 
L 146.138862 191.540098 
L 146.861923 192.137184 
L 147.584985 193.125668 
L 148.308046 194.592083 
L 149.031108 193.092297 
L 149.754169 194.839263 
L 150.47723 193.026629 
L 151.200292 193.209073 
L 151.923353 194.401238 
L 152.646414 192.743464 
L 153.369476 190.766915 
L 154.092537 190.398946 
L 154.815598 192.352626 
L 155.53866 193.703292 
L 156.984782 190.303127 
L 157.707844 187.638806 
L 158.430905 189.979124 
L 159.153966 189.24678 
L 159.877028 191.071969 
L 160.600089 192.424782 
L 162.046212 193.859553 
L 162.769273 190.447112 
L 164.215396 191.180997 
L 164.938457 190.065375 
L 165.661519 193.588897 
L 166.38458 190.4031 
L 167.107641 187.817703 
L 167.830703 190.121149 
L 168.553764 190.011608 
L 169.276825 188.32065 
L 169.999887 190.123016 
L 170.722948 190.705914 
L 171.446009 188.749293 
L 172.169071 187.199988 
L 172.892132 187.388079 
L 173.615193 187.232705 
L 174.338255 185.41027 
L 175.061316 184.71055 
L 175.784377 184.204103 
L 176.507439 186.750154 
L 177.2305 187.361989 
L 178.676623 189.863422 
L 179.399684 189.806714 
L 180.122745 191.166341 
L 180.845807 191.176843 
L 181.568868 191.709427 
L 182.29193 190.636884 
L 183.014991 187.462756 
L 183.738052 189.19838 
L 184.461114 188.646847 
L 185.184175 186.101448 
L 185.907236 186.205809 
L 186.630298 187.765383 
L 187.353359 186.563043 
L 188.07642 186.983192 
L 188.799482 187.675257 
L 189.522543 186.99178 
L 190.245604 185.948595 
L 190.968666 187.291 
L 191.691727 184.502482 
L 192.414788 187.54644 
L 193.13785 188.079258 
L 193.860911 183.928919 
L 194.583972 185.469078 
L 195.307034 183.745868 
L 196.030095 184.519005 
L 196.753157 183.994822 
L 197.476218 180.978354 
L 198.199279 183.283807 
L 198.922341 179.984455 
L 199.645402 179.469513 
L 200.368463 179.424427 
L 201.091525 180.87488 
L 201.814586 180.805384 
L 202.537647 182.704177 
L 203.260709 181.807591 
L 203.98377 180.058245 
L 204.706831 185.472531 
L 205.429893 184.064784 
L 206.152954 182.004784 
L 206.876015 181.52438 
L 207.599077 181.64937 
L 208.322138 179.934655 
L 209.045199 178.876348 
L 209.768261 180.479934 
L 210.491322 178.844797 
L 211.214383 177.58505 
L 211.937445 179.258925 
L 212.660506 180.164332 
L 213.383568 177.782196 
L 214.106629 178.072548 
L 214.82969 179.366833 
L 215.552752 178.752712 
L 216.275813 176.707693 
L 216.998874 180.935275 
L 218.444997 177.396491 
L 219.168058 177.438917 
L 219.89112 179.480388 
L 220.614181 178.005059 
L 221.337242 179.101218 
L 222.060304 177.384403 
L 222.783365 178.960732 
L 223.506426 177.573241 
L 224.229488 179.294163 
L 224.952549 178.345724 
L 225.67561 177.010507 
L 226.398672 176.744611 
L 227.121733 178.484156 
L 227.844794 176.9117 
L 228.567856 176.035977 
L 229.290917 175.917568 
L 230.013979 176.772522 
L 230.73704 171.573304 
L 231.460101 174.450033 
L 232.906224 173.758341 
L 233.629285 174.915828 
L 234.352347 172.882011 
L 235.075408 174.808154 
L 235.798469 174.369569 
L 236.521531 177.448858 
L 237.244592 173.830264 
L 237.967653 175.553846 
L 238.690715 173.181511 
L 240.136837 171.81619 
L 240.859899 171.528218 
L 241.58296 175.702079 
L 242.306021 171.345494 
L 243.029083 169.477085 
L 243.752144 173.366989 
L 244.475206 174.192539 
L 245.921328 172.411315 
L 246.64439 170.982005 
L 247.367451 168.671138 
L 248.090512 170.83914 
L 248.813574 169.394288 
L 249.536635 170.515883 
L 250.259696 170.658282 
L 250.982758 167.619365 
L 251.705819 167.818752 
L 252.42888 169.96127 
L 253.151942 167.496989 
L 253.875003 168.88658 
L 254.598064 170.84124 
L 255.321126 168.547548 
L 256.044187 167.681253 
L 256.767248 167.709817 
L 257.49031 168.249169 
L 258.213371 167.52924 
L 258.936432 164.801024 
L 259.659494 168.238107 
L 260.382555 164.156238 
L 261.105617 164.797337 
L 261.828678 166.380807 
L 262.551739 165.445156 
L 263.274801 166.934721 
L 263.997862 167.676959 
L 264.720923 166.183941 
L 265.443985 167.177653 
L 266.167046 167.477946 
L 266.890107 163.634902 
L 267.613169 166.008171 
L 268.33623 164.755098 
L 269.059291 165.411178 
L 269.782353 165.24871 
L 270.505414 161.86068 
L 271.951537 161.268448 
L 272.674598 160.743051 
L 273.397659 163.500531 
L 274.120721 159.786071 
L 274.843782 159.613101 
L 275.566843 160.329623 
L 276.289905 162.600585 
L 277.012966 161.337103 
L 277.736028 161.519361 
L 278.459089 159.501086 
L 279.18215 162.038737 
L 279.905212 160.663614 
L 280.628273 161.083483 
L 281.351334 160.422689 
L 282.074396 160.572182 
L 282.797457 164.659092 
L 283.520518 159.787518 
L 284.24358 160.620162 
L 284.966641 160.780109 
L 285.689702 159.842592 
L 286.412764 157.835658 
L 287.135825 159.535857 
L 287.858886 157.755988 
L 288.581948 158.673483 
L 289.305009 158.769769 
L 290.02807 157.056034 
L 290.751132 159.705887 
L 291.474193 158.748719 
L 292.197255 160.635237 
L 292.920316 156.321824 
L 293.643377 160.337837 
L 294.366439 158.558481 
L 295.0895 155.8452 
L 295.812561 157.276284 
L 296.535623 156.825984 
L 297.258684 160.175976 
L 297.981745 156.694506 
L 298.704807 156.190253 
L 299.427868 158.457527 
L 300.150929 157.993132 
L 300.873991 158.329037 
L 301.597052 155.804828 
L 302.320113 157.342933 
L 303.043175 156.272164 
L 303.766236 157.359642 
L 304.489297 156.835879 
L 305.212359 154.63922 
L 306.658481 158.026737 
L 307.381543 154.348075 
L 308.104604 155.425051 
L 308.827666 154.051188 
L 309.550727 155.961089 
L 310.273788 154.476238 
L 310.99685 156.119543 
L 311.719911 154.050675 
L 312.442972 155.174231 
L 313.166034 156.972583 
L 314.612156 153.043381 
L 315.335218 152.173352 
L 316.058279 154.457056 
L 316.78134 152.958717 
L 317.504402 157.89904 
L 318.227463 154.534253 
L 318.950524 155.826204 
L 319.673586 158.975456 
L 320.396647 154.43974 
L 321.119708 157.194653 
L 321.84277 154.527532 
L 322.565831 156.658848 
L 323.288892 151.413471 
L 324.011954 153.078432 
L 324.735015 152.324386 
L 325.458077 151.10473 
L 326.181138 150.644489 
L 326.904199 151.124006 
L 327.627261 150.533314 
L 328.350322 149.006038 
L 329.073383 150.263125 
L 329.796445 148.364846 
L 330.519506 151.155697 
L 331.242567 151.492208 
L 331.965629 150.661665 
L 332.68869 150.436608 
L 333.411751 151.262624 
L 334.134813 154.731212 
L 334.857874 147.768973 
L 335.580935 153.132246 
L 336.303997 149.978934 
L 337.027058 151.843095 
L 337.750119 150.504797 
L 338.473181 150.322633 
L 339.196242 150.371079 
L 339.919304 150.079841 
L 340.642365 150.647009 
L 341.365426 150.959017 
L 342.088488 148.831388 
L 342.811549 147.425555 
L 343.53461 152.383707 
L 344.257672 152.264084 
L 344.980733 148.359059 
L 345.703794 150.482721 
L 346.426856 149.318699 
L 347.149917 148.813372 
L 347.872978 151.735887 
L 348.59604 150.233674 
L 349.319101 152.05723 
L 350.042162 154.708342 
L 350.765224 149.684335 
L 352.211346 150.459104 
L 352.934408 148.817946 
L 353.657469 147.462566 
L 354.38053 154.440253 
L 355.103592 147.462333 
L 355.826653 145.128409 
L 356.549715 146.504745 
L 357.272776 149.091729 
L 357.995837 151.078687 
L 358.718899 146.783569 
L 359.44196 145.930062 
L 360.165021 147.041203 
L 360.888083 149.661372 
L 361.611144 147.934289 
L 362.334205 152.105817 
L 363.057267 150.551283 
L 363.780328 150.790948 
L 364.503389 152.513037 
L 365.226451 147.536216 
L 365.949512 148.053118 
L 366.672573 144.439891 
L 367.395635 147.96584 
L 368.118696 150.864272 
L 368.841757 147.581909 
L 369.564819 147.903345 
L 370.28788 146.918547 
L 371.010941 146.41182 
L 371.734003 146.803125 
L 372.457064 146.020654 
L 373.180126 144.15444 
L 373.903187 146.74119 
L 374.626248 148.526754 
L 375.34931 145.99013 
L 376.072371 151.294269 
L 376.795432 145.678262 
L 377.518494 146.688823 
L 378.241555 145.537684 
L 378.964616 148.761425 
L 379.687678 149.959238 
L 380.410739 146.081983 
L 381.1338 146.055566 
L 381.856862 144.514848 
L 382.579923 144.568101 
L 383.302984 141.655341 
L 384.026046 138.008043 
L 384.749107 138.044728 
L 385.472168 141.6482 
L 386.19523 136.348029 
L 386.918291 139.770737 
L 387.641353 140.576731 
L 388.364414 139.496674 
L 389.087475 141.647687 
L 389.810537 140.0918 
L 390.533598 140.140573 
L 391.256659 145.619221 
L 392.702782 142.795746 
L 393.425843 147.635396 
L 394.148905 144.550039 
L 394.871966 145.897531 
L 395.595027 141.662809 
L 396.318089 145.974775 
L 397.04115 149.253731 
L 397.764211 144.105573 
L 398.487273 144.754466 
L 398.487273 144.754466 
" clip-path="url(#p64339e4f3f)" style="fill: none; stroke: #0000ff; stroke-width: 1.5; stroke-linecap: square"/>
   </g>
   <g id="patch_3">
    <path d="M 57.6 307.584 
L 57.6 41.472 
" style="fill: none; stroke: #000000; stroke-width: 0.8; stroke-linejoin: miter; stroke-linecap: square"/>
   </g>
   <g id="patch_4">
    <path d="M 414.72 307.584 
L 414.72 41.472 
" style="fill: none; stroke: #000000; stroke-width: 0.8; stroke-linejoin: miter; stroke-linecap: square"/>
   </g>
   <g id="patch_5">
    <path d="M 57.6 307.584 
L 414.72 307.584 
" style="fill: none; stroke: #000000; stroke-width: 0.8; stroke-linejoin: miter; stroke-linecap: square"/>
   </g>
   <g id="patch_6">
    <path d="M 57.6 41.472 
L 414.72 41.472 
" style="fill: none; stroke: #000000; stroke-width: 0.8; stroke-linejoin: miter; stroke-linecap: square"/>
   </g>
   <g id="legend_1">
    <g id="patch_7">
     <path d="M 351.7325 78.82825 
L 407.72 78.82825 
Q 409.72 78.82825 409.72 76.82825 
L 409.72 48.472 
Q 409.72 46.472 407.72 46.472 
L 351.7325 46.472 
Q 349.7325 46.472 349.7325 48.472 
L 349.7325 76.82825 
Q 349.7325 78.82825 351.7325 78.82825 
z
" style="fill: #ffffff; opacity: 0.8; stroke: #cccccc; stroke-linejoin: miter"/>
    </g>
    <g id="line2d_16">
     <path d="M 353.7325 54.570437 
L 363.7325 54.570437 
L 373.7325 54.570437 
" style="fill: none; stroke: #ff0000; stroke-width: 1.5; stroke-linecap: square"/>
    </g>
    <g id="text_16">
     <!-- Train -->
     <g transform="translate(381.7325 58.070437) scale(0.1 -0.1)">
      <defs>
       <path id="DejaVuSans-54" d="M -19 4666 
L 3928 4666 
L 3928 4134 
L 2272 4134 
L 2272 0 
L 1638 0 
L 1638 4134 
L -19 4134 
L -19 4666 
z
" transform="scale(0.015625)"/>
       <path id="DejaVuSans-72" d="M 2631 2963 
Q 2534 3019 2420 3045 
Q 2306 3072 2169 3072 
Q 1681 3072 1420 2755 
Q 1159 2438 1159 1844 
L 1159 0 
L 581 0 
L 581 3500 
L 1159 3500 
L 1159 2956 
Q 1341 3275 1631 3429 
Q 1922 3584 2338 3584 
Q 2397 3584 2469 3576 
Q 2541 3569 2628 3553 
L 2631 2963 
z
" transform="scale(0.015625)"/>
       <path id="DejaVuSans-61" d="M 2194 1759 
Q 1497 1759 1228 1600 
Q 959 1441 959 1056 
Q 959 750 1161 570 
Q 1363 391 1709 391 
Q 2188 391 2477 730 
Q 2766 1069 2766 1631 
L 2766 1759 
L 2194 1759 
z
M 3341 1997 
L 3341 0 
L 2766 0 
L 2766 531 
Q 2569 213 2275 61 
Q 1981 -91 1556 -91 
Q 1019 -91 701 211 
Q 384 513 384 1019 
Q 384 1609 779 1909 
Q 1175 2209 1959 2209 
L 2766 2209 
L 2766 2266 
Q 2766 2663 2505 2880 
Q 2244 3097 1772 3097 
Q 1472 3097 1187 3025 
Q 903 2953 641 2809 
L 641 3341 
Q 956 3463 1253 3523 
Q 1550 3584 1831 3584 
Q 2591 3584 2966 3190 
Q 3341 2797 3341 1997 
z
" transform="scale(0.015625)"/>
       <path id="DejaVuSans-69" d="M 603 3500 
L 1178 3500 
L 1178 0 
L 603 0 
L 603 3500 
z
M 603 4863 
L 1178 4863 
L 1178 4134 
L 603 4134 
L 603 4863 
z
" transform="scale(0.015625)"/>
       <path id="DejaVuSans-6e" d="M 3513 2113 
L 3513 0 
L 2938 0 
L 2938 2094 
Q 2938 2591 2744 2837 
Q 2550 3084 2163 3084 
Q 1697 3084 1428 2787 
Q 1159 2491 1159 1978 
L 1159 0 
L 581 0 
L 581 3500 
L 1159 3500 
L 1159 2956 
Q 1366 3272 1645 3428 
Q 1925 3584 2291 3584 
Q 2894 3584 3203 3211 
Q 3513 2838 3513 2113 
z
" transform="scale(0.015625)"/>
      </defs>
      <use xlink:href="#DejaVuSans-54"/>
      <use xlink:href="#DejaVuSans-72" x="46.333984"/>
      <use xlink:href="#DejaVuSans-61" x="87.447266"/>
      <use xlink:href="#DejaVuSans-69" x="148.726562"/>
      <use xlink:href="#DejaVuSans-6e" x="176.509766"/>
     </g>
    </g>
    <g id="line2d_17">
     <path d="M 353.7325 69.248562 
L 363.7325 69.248562 
L 373.7325 69.248562 
" style="fill: none; stroke: #0000ff; stroke-width: 1.5; stroke-linecap: square"/>
    </g>
    <g id="text_17">
     <!-- Test -->
     <g transform="translate(381.7325 72.748562) scale(0.1 -0.1)">
      <defs>
       <path id="DejaVuSans-65" d="M 3597 1894 
L 3597 1613 
L 953 1613 
Q 991 1019 1311 708 
Q 1631 397 2203 397 
Q 2534 397 2845 478 
Q 3156 559 3463 722 
L 3463 178 
Q 3153 47 2828 -22 
Q 2503 -91 2169 -91 
Q 1331 -91 842 396 
Q 353 884 353 1716 
Q 353 2575 817 3079 
Q 1281 3584 2069 3584 
Q 2775 3584 3186 3129 
Q 3597 2675 3597 1894 
z
M 3022 2063 
Q 3016 2534 2758 2815 
Q 2500 3097 2075 3097 
Q 1594 3097 1305 2825 
Q 1016 2553 972 2059 
L 3022 2063 
z
" transform="scale(0.015625)"/>
       <path id="DejaVuSans-74" d="M 1172 4494 
L 1172 3500 
L 2356 3500 
L 2356 3053 
L 1172 3053 
L 1172 1153 
Q 1172 725 1289 603 
Q 1406 481 1766 481 
L 2356 481 
L 2356 0 
L 1766 0 
Q 1100 0 847 248 
Q 594 497 594 1153 
L 594 3053 
L 172 3053 
L 172 3500 
L 594 3500 
L 594 4494 
L 1172 4494 
z
" transform="scale(0.015625)"/>
      </defs>
      <use xlink:href="#DejaVuSans-54"/>
      <use xlink:href="#DejaVuSans-65" x="44.083984"/>
      <use xlink:href="#DejaVuSans-73" x="105.607422"/>
      <use xlink:href="#DejaVuSans-74" x="157.707031"/>
     </g>
    </g>
   </g>
  </g>
 </g>
 <defs>
  <clipPath id="p64339e4f3f">
   <rect x="57.6" y="41.472" width="357.12" height="266.112"/>
  </clipPath>
 </defs>
</svg>
